<svg width="40" height="31" viewBox="0 0 40 31" fill="none" xmlns="http://www.w3.org/2000/svg">
<path d="M36 26.2949H32V9.88867L20 16.9199L8 9.88867V26.2949H4V3.79492H6.4L20 11.7637L33.6 3.79492H36V26.2949ZM36 0.0449219H4C1.78 0.0449219 0 1.71367 0 3.79492V26.2949C0 27.2895 0.421427 28.2433 1.17157 28.9466C1.92172 29.6498 2.93913 30.0449 4 30.0449H36C37.0609 30.0449 38.0783 29.6498 38.8284 28.9466C39.5786 28.2433 40 27.2895 40 26.2949V3.79492C40 2.80036 39.5786 1.84653 38.8284 1.14327C38.0783 0.44001 37.0609 0.0449219 36 0.0449219Z" fill="#353535"/>
</svg>
