<svg width="60" height="82" viewBox="0 0 60 82" fill="none" xmlns="http://www.w3.org/2000/svg">
<g clip-path="url(#clip0)">
<path d="M19.3486 62.689C19.3486 62.689 16.2553 64.4878 21.5501 65.0965C27.9647 65.8282 31.2429 65.7234 38.3119 64.3854C38.3119 64.3854 40.1705 65.5507 42.7657 66.5601C26.9194 73.3516 6.90187 66.1666 19.3486 62.689Z" fill="#5382A1"/>
<path d="M17.4122 53.8264C17.4122 53.8264 13.9427 56.3946 19.2415 56.9426C26.0937 57.6495 31.5049 57.7074 40.8687 55.9043C40.8687 55.9043 42.1638 57.2173 44.2003 57.9354C25.0409 63.5379 3.70077 58.3772 17.4122 53.8264Z" fill="#5382A1"/>
<path d="M33.7364 38.7926C37.6411 43.2879 32.7106 47.3332 32.7106 47.3332C32.7106 47.3332 42.6249 42.2152 38.0717 35.806C33.8192 29.8294 30.5578 26.8594 48.2126 16.6205C48.2126 16.6205 20.5006 23.5416 33.7364 38.7924" fill="#E76F00"/>
<path d="M54.6947 69.2442C54.6947 69.2442 56.9838 71.1303 52.1735 72.5895C43.0268 75.3605 14.1035 76.1972 6.06867 72.6999C3.18047 71.4436 8.59688 69.6999 10.3005 69.3338C12.0773 68.9485 13.0929 69.0204 13.0929 69.0204C9.88078 66.7575 -7.66875 73.4635 4.17867 75.3837C36.488 80.6234 63.0752 73.0245 54.6947 69.2442Z" fill="#5382A1"/>
<path d="M20.8359 44.6438C20.8359 44.6438 6.12397 48.1383 15.6262 49.407C19.6383 49.9442 27.6363 49.8228 35.0864 49.1984C41.175 48.6851 47.2887 47.5929 47.2887 47.5929C47.2887 47.5929 45.1418 48.5124 43.5886 49.5729C28.6486 53.5022 -0.21283 51.6744 8.096 47.655C15.1228 44.2585 20.8362 44.6438 20.8362 44.6438" fill="#5382A1"/>
<path d="M47.228 59.3958C62.4155 51.5039 55.3934 43.92 50.4921 44.9419C49.2907 45.1917 48.7552 45.4083 48.7552 45.4083C48.7552 45.4083 49.2012 44.7098 50.0529 44.4075C59.749 40.9985 67.2061 54.4615 46.9228 59.7935C46.9228 59.7937 47.1579 59.5837 47.228 59.3958Z" fill="#5382A1"/>
<path d="M38.0716 0.0869653C38.0716 0.0869653 46.4826 8.50103 30.0942 21.4388C16.9526 31.8174 27.0975 37.7349 30.0888 44.4959C22.4177 37.5748 16.788 31.482 20.565 25.8115C26.1082 17.4872 41.4651 13.4515 38.0716 0.086731" fill="#E76F00"/>
<path d="M22.3285 80.7809C36.9063 81.7141 59.2922 80.2631 59.8224 73.3652C59.8224 73.3652 58.8033 75.9804 47.7745 78.0569C35.332 80.3984 19.9861 80.1251 10.8842 78.6244C10.8844 78.6244 12.7474 80.1666 22.3287 80.7809" fill="#5382A1"/>
</g>
<defs>
<clipPath id="clip0">
<rect width="60" height="81.0938" fill="white"/>
</clipPath>
</defs>
</svg>
