<svg width="60" height="60" viewBox="0 0 60 60" fill="none" xmlns="http://www.w3.org/2000/svg">
<path fill-rule="evenodd" clip-rule="evenodd" d="M30 3.75C35.1918 3.75 40.2669 5.28954 44.5837 8.17392C48.9005 11.0583 52.265 15.158 54.2518 19.9546C56.2386 24.7511 56.7585 30.0291 55.7456 35.1211C54.7327 40.2131 52.2327 44.8904 48.5616 48.5616C44.8904 52.2327 40.2131 54.7327 35.1211 55.7456C30.0291 56.7585 24.7511 56.2386 19.9546 54.2518C15.158 52.265 11.0583 48.9005 8.17392 44.5837C5.28954 40.2669 3.75 35.1918 3.75 30C3.75 23.0381 6.51562 16.3613 11.4384 11.4384C16.3613 6.51562 23.0381 3.75 30 3.75Z" fill="#CC6699"/>
<path d="M46.4663 14.985C45.2775 10.3237 37.5469 8.79746 30.2306 11.3887C25.6487 12.9284 21.4154 15.3566 17.7731 18.5343C13.7438 22.3031 13.1006 25.5843 13.365 26.955C14.3025 31.7925 20.9269 34.9537 23.6513 37.2993V37.3125C22.8488 37.7081 16.9688 40.6875 15.5888 43.725C14.1375 46.935 15.8194 49.2375 16.935 49.5468C18.61 49.9501 20.3692 49.8188 21.9658 49.1715C23.5624 48.5242 24.9163 47.3933 25.8375 45.9375C26.5989 44.7579 27.0752 43.4174 27.2288 42.0219C27.3824 40.6264 27.2091 39.2144 26.7225 37.8975C28.0348 37.564 29.3988 37.4857 30.7406 37.6668C35.3456 38.205 36.2494 41.0793 36.0769 42.2831C35.9957 42.7116 35.8233 43.1176 35.5713 43.4735C35.3192 43.8294 34.9935 44.1268 34.6163 44.3456C34.2938 44.5462 34.1944 44.6137 34.2225 44.7637C34.2619 44.9793 34.41 44.9718 34.6856 44.925C35.3776 44.707 35.9874 44.2845 36.4346 43.7132C36.8817 43.1419 37.1453 42.4484 37.1906 41.7243C37.3012 38.9118 34.5994 35.7506 29.8144 35.8312C28.4246 35.7915 27.0378 35.9816 25.71 36.3937C25.6435 36.3178 25.576 36.2428 25.5075 36.1687C22.5488 33.0131 17.0813 30.78 17.3119 26.5368C17.3963 24.9937 17.9325 20.9325 27.8119 16.005C35.9119 11.9681 42.3956 13.08 43.5169 15.5418C45.1181 19.0593 40.0519 25.5937 31.6406 26.5368C30.711 26.7256 29.7507 26.7026 28.8312 26.4695C27.9116 26.2364 27.0563 25.7993 26.3288 25.1906C25.8863 24.7031 25.8206 24.6825 25.6556 24.7725C25.3875 24.9206 25.5581 25.3518 25.6556 25.6068C25.9777 26.1873 26.4124 26.6976 26.9344 27.1078C27.4563 27.518 28.0549 27.8198 28.695 27.9956C32.0021 28.7142 35.4515 28.373 38.5538 27.0206C43.6556 25.0537 47.6344 19.5693 46.4663 14.985ZM24.7838 38.7431C25.1562 40.0269 25.1372 41.3926 24.7294 42.6656C24.6856 42.7981 24.6375 42.9293 24.585 43.0593C24.5325 43.1893 24.4756 43.3143 24.4144 43.4343C24.0988 44.08 23.6901 44.6757 23.2013 45.2025C21.6769 46.8656 19.545 47.4956 18.6319 46.965C17.6456 46.3931 18.1388 44.0475 19.9069 42.1781C21.2655 40.8346 22.8318 39.7191 24.5456 38.8743L24.7838 38.7431Z" fill="white"/>
</svg>
