<svg width="60" height="60" viewBox="0 0 60 60" fill="none" xmlns="http://www.w3.org/2000/svg">
<g clip-path="url(#clip0)">
<path d="M29.7459 0.0168457C14.5509 0.0168457 15.4997 6.6063 15.4997 6.6063L15.5165 13.4332H30.0169V15.4828H9.75725C9.75725 15.4828 0.0339661 14.38 0.0339661 29.7117C0.0339661 45.0438 8.52068 44.5 8.52068 44.5H13.5855V37.3854C13.5855 37.3854 13.3125 28.8986 21.9368 28.8986H36.3185C36.3185 28.8986 44.3986 29.0292 44.3986 21.0895V7.96169C44.3986 7.96169 45.6258 0.0168457 29.7459 0.0168457ZM21.7505 4.60778C22.0931 4.60747 22.4325 4.67474 22.7491 4.80572C23.0657 4.93671 23.3534 5.12884 23.5957 5.37113C23.838 5.61343 24.0301 5.90112 24.1611 6.21775C24.2921 6.53437 24.3594 6.87372 24.359 7.21638C24.3594 7.55903 24.2921 7.89838 24.1611 8.21501C24.0301 8.53164 23.838 8.81933 23.5957 9.06162C23.3534 9.30391 23.0657 9.49605 22.7491 9.62703C22.4325 9.75802 22.0931 9.82528 21.7505 9.82497C21.4078 9.82528 21.0684 9.75802 20.7518 9.62703C20.4352 9.49605 20.1475 9.30391 19.9052 9.06162C19.6629 8.81933 19.4708 8.53164 19.3398 8.21501C19.2088 7.89838 19.1415 7.55903 19.1419 7.21638C19.1415 6.87372 19.2088 6.53437 19.3398 6.21775C19.4708 5.90112 19.6629 5.61343 19.9052 5.37113C20.1475 5.12884 20.4352 4.93671 20.7518 4.80572C21.0684 4.67474 21.4078 4.60747 21.7505 4.60778Z" fill="url(#paint0_linear)"/>
<path d="M30.1774 59.5608C45.3724 59.5608 44.4237 52.9713 44.4237 52.9713L44.4068 46.1447H29.9062V44.0951H50.1658C50.1658 44.0951 59.8891 45.1978 59.8891 29.8657C59.8891 14.5338 51.4024 15.0776 51.4024 15.0776H46.3376V22.192C46.3376 22.192 46.6106 30.6788 37.9863 30.6788H23.6046C23.6046 30.6788 15.5245 30.5482 15.5245 38.4881V51.6162C15.5245 51.6162 14.2976 59.5608 30.1772 59.5608H30.1774ZM38.1729 54.9703C37.8302 54.9706 37.4909 54.9034 37.1742 54.7724C36.8576 54.6414 36.5699 54.4493 36.3276 54.207C36.0853 53.9647 35.8932 53.677 35.7622 53.3603C35.6312 53.0437 35.564 52.7044 35.5643 52.3617C35.5639 52.019 35.6312 51.6797 35.7622 51.363C35.8931 51.0464 36.0853 50.7586 36.3276 50.5163C36.5698 50.274 36.8575 50.0819 37.1742 49.9509C37.4908 49.8199 37.8302 49.7526 38.1729 49.7529C38.5155 49.7526 38.8549 49.8198 39.1715 49.9508C39.4881 50.0818 39.7758 50.2739 40.0181 50.5162C40.2604 50.7585 40.4525 51.0462 40.5835 51.3629C40.7145 51.6795 40.7818 52.0188 40.7815 52.3615C40.7818 52.7041 40.7145 53.0435 40.5835 53.3601C40.4525 53.6767 40.2604 53.9644 40.0181 54.2067C39.7758 54.449 39.4881 54.6412 39.1715 54.7721C38.8549 54.9031 38.5155 54.9704 38.1729 54.9701V54.9703Z" fill="url(#paint1_linear)"/>
</g>
<defs>
<linearGradient id="paint0_linear" x1="5.78603" y1="5.37246" x2="35.4484" y2="34.7389" gradientUnits="userSpaceOnUse">
<stop stop-color="#387EB8"/>
<stop offset="1" stop-color="#366994"/>
</linearGradient>
<linearGradient id="paint1_linear" x1="23.9928" y1="24.2299" x2="55.8468" y2="54.3425" gradientUnits="userSpaceOnUse">
<stop stop-color="#FFE052"/>
<stop offset="1" stop-color="#FFC331"/>
</linearGradient>
<clipPath id="clip0">
<rect width="60" height="59.7656" fill="white"/>
</clipPath>
</defs>
</svg>
