<svg width="70" height="70" viewBox="0 0 70 70" fill="none" xmlns="http://www.w3.org/2000/svg">
<path d="M12.6875 53.8125L13.0594 53.2941L30.6031 20.0135L30.6403 19.6613L22.9075 5.13627C22.7659 4.87066 22.5444 4.65628 22.2743 4.52348C22.0042 4.39067 21.6992 4.34615 21.4024 4.39622C21.1056 4.44629 20.8321 4.58841 20.6205 4.80248C20.4089 5.01655 20.27 5.29173 20.2234 5.58908L12.6875 53.8125Z" fill="#FFC24A"/>
<path d="M12.9062 53.4187L13.1862 52.8718L30.5484 19.9368L22.8353 5.35497C22.7081 5.10138 22.5022 4.89583 22.2483 4.76912C21.9945 4.6424 21.7065 4.60134 21.4273 4.65209C21.1482 4.70284 20.893 4.84267 20.7001 5.05062C20.5071 5.25858 20.3867 5.52346 20.3569 5.8056L12.9062 53.4187Z" fill="#FFA712"/>
<path d="M36.2775 30.6469L42.035 24.7407L36.2753 13.7572C36.1485 13.5208 35.96 13.3233 35.7299 13.1855C35.4997 13.0478 35.2365 12.975 34.9683 12.975C34.7001 12.975 34.4368 13.0478 34.2067 13.1855C33.9765 13.3233 33.788 13.5208 33.6612 13.7572L30.5834 19.6241V20.125L36.2775 30.6469Z" fill="#F4BD62"/>
<path d="M36.1747 30.4062L41.7725 24.675L36.1747 14C36.083 13.7689 35.9265 13.5693 35.724 13.4252C35.5215 13.281 35.2816 13.1986 35.0333 13.1877C34.7849 13.1768 34.5388 13.238 34.3244 13.3639C34.1101 13.4898 33.9367 13.675 33.8253 13.8972L30.7322 19.8669L30.6403 20.1709L36.1747 30.4062Z" fill="#FFA50E"/>
<path d="M12.6919 53.8147L12.8603 53.6441L13.4706 53.3969L35.9144 31.0362L36.1987 30.2619L30.6009 19.5912L12.6919 53.8147Z" fill="#F6820C"/>
<path d="M36.995 65.0913L57.3125 53.7622L51.5069 18.0381C51.4653 17.7863 51.3551 17.5508 51.1884 17.3575C51.0217 17.1642 50.805 17.0206 50.562 16.9424C50.319 16.8641 50.0592 16.8544 49.811 16.9142C49.5629 16.974 49.336 17.101 49.1553 17.2813L12.6875 53.8125L32.8847 65.0891C33.5126 65.4395 34.2197 65.6234 34.9388 65.6234C35.6578 65.6234 36.3649 65.4395 36.9928 65.0891" fill="#FDE068"/>
<path d="M57.1266 53.6681L51.3691 18.2131C51.3589 17.9723 51.2775 17.7398 51.1352 17.5452C50.9929 17.3506 50.796 17.2026 50.5695 17.12C50.3431 17.0373 50.0972 17.0237 49.8629 17.0808C49.6287 17.1379 49.4167 17.2633 49.2538 17.441L12.9062 53.7447L32.8803 64.901C33.5032 65.2485 34.2047 65.4309 34.918 65.4309C35.6313 65.4309 36.3327 65.2485 36.9556 64.901L57.1266 53.6681Z" fill="#FCCA3F"/>
<path d="M36.995 64.75C36.3671 65.1004 35.66 65.2843 34.9409 65.2843C34.2219 65.2843 33.5148 65.1004 32.8869 64.75L12.8537 53.6419L12.6875 53.8125L32.8847 65.0891C33.5126 65.4394 34.2197 65.6234 34.9388 65.6234C35.6578 65.6234 36.3649 65.4394 36.9928 65.0891L57.3125 53.7622L57.2622 53.4559L36.995 64.75Z" fill="#EEAB37"/>
</svg>
