<svg width="1440" height="1024" viewBox="0 0 1440 1024" fill="none" xmlns="http://www.w3.org/2000/svg">
<rect width="1440" height="1024" fill="#E2E2E2"/>
<path d="M306.341 299.84V356H292.661V322.32L280.101 356H269.061L256.421 322.24V356H242.741V299.84H258.901L274.661 338.72L290.261 299.84H306.341ZM313.459 333.6C313.459 329.013 314.312 324.987 316.019 321.52C317.779 318.053 320.152 315.387 323.139 313.52C326.125 311.653 329.459 310.72 333.139 310.72C336.285 310.72 339.032 311.36 341.379 312.64C343.779 313.92 345.619 315.6 346.899 317.68V311.36H360.579V356H346.899V349.68C345.565 351.76 343.699 353.44 341.299 354.72C338.952 356 336.205 356.64 333.059 356.64C329.432 356.64 326.125 355.707 323.139 353.84C320.152 351.92 317.779 349.227 316.019 345.76C314.312 342.24 313.459 338.187 313.459 333.6ZM346.899 333.68C346.899 330.267 345.939 327.573 344.019 325.6C342.152 323.627 339.859 322.64 337.139 322.64C334.419 322.64 332.099 323.627 330.179 325.6C328.312 327.52 327.379 330.187 327.379 333.6C327.379 337.013 328.312 339.733 330.179 341.76C332.099 343.733 334.419 344.72 337.139 344.72C339.859 344.72 342.152 343.733 344.019 341.76C345.939 339.787 346.899 337.093 346.899 333.68ZM397.676 310.88C402.902 310.88 407.062 312.587 410.156 316C413.302 319.36 414.876 324 414.876 329.92V356H401.276V331.76C401.276 328.773 400.502 326.453 398.956 324.8C397.409 323.147 395.329 322.32 392.716 322.32C390.102 322.32 388.022 323.147 386.476 324.8C384.929 326.453 384.156 328.773 384.156 331.76V356H370.476V311.36H384.156V317.28C385.542 315.307 387.409 313.76 389.756 312.64C392.102 311.467 394.742 310.88 397.676 310.88ZM449.262 344.4V356H442.302C437.342 356 433.475 354.8 430.702 352.4C427.929 349.947 426.542 345.973 426.542 340.48V322.72H421.102V311.36H426.542V300.48H440.222V311.36H449.182V322.72H440.222V340.64C440.222 341.973 440.542 342.933 441.182 343.52C441.822 344.107 442.889 344.4 444.382 344.4H449.262ZM498.962 332.96C498.962 334.24 498.882 335.573 498.722 336.96H467.762C467.975 339.733 468.855 341.867 470.402 343.36C472.002 344.8 473.949 345.52 476.242 345.52C479.655 345.52 482.029 344.08 483.362 341.2H497.922C497.175 344.133 495.815 346.773 493.842 349.12C491.922 351.467 489.495 353.307 486.562 354.64C483.629 355.973 480.349 356.64 476.722 356.64C472.349 356.64 468.455 355.707 465.042 353.84C461.629 351.973 458.962 349.307 457.042 345.84C455.122 342.373 454.162 338.32 454.162 333.68C454.162 329.04 455.095 324.987 456.962 321.52C458.882 318.053 461.549 315.387 464.962 313.52C468.375 311.653 472.295 310.72 476.722 310.72C481.042 310.72 484.882 311.627 488.242 313.44C491.602 315.253 494.215 317.84 496.082 321.2C498.002 324.56 498.962 328.48 498.962 332.96ZM484.962 329.36C484.962 327.013 484.162 325.147 482.562 323.76C480.962 322.373 478.962 321.68 476.562 321.68C474.269 321.68 472.322 322.347 470.722 323.68C469.175 325.013 468.215 326.907 467.842 329.36H484.962ZM533.379 310.88C538.605 310.88 542.765 312.587 545.859 316C549.005 319.36 550.579 324 550.579 329.92V356H536.979V331.76C536.979 328.773 536.205 326.453 534.659 324.8C533.112 323.147 531.032 322.32 528.419 322.32C525.805 322.32 523.725 323.147 522.179 324.8C520.632 326.453 519.859 328.773 519.859 331.76V356H506.179V311.36H519.859V317.28C521.245 315.307 523.112 313.76 525.459 312.64C527.805 311.467 530.445 310.88 533.379 310.88ZM584.965 344.4V356H578.005C573.045 356 569.178 354.8 566.405 352.4C563.632 349.947 562.245 345.973 562.245 340.48V322.72H556.805V311.36H562.245V300.48H575.925V311.36H584.885V322.72H575.925V340.64C575.925 341.973 576.245 342.933 576.885 343.52C577.525 344.107 578.592 344.4 580.085 344.4H584.965ZM634.665 332.96C634.665 334.24 634.585 335.573 634.425 336.96H603.465C603.678 339.733 604.558 341.867 606.105 343.36C607.705 344.8 609.652 345.52 611.945 345.52C615.358 345.52 617.732 344.08 619.065 341.2H633.625C632.878 344.133 631.518 346.773 629.545 349.12C627.625 351.467 625.198 353.307 622.265 354.64C619.332 355.973 616.052 356.64 612.425 356.64C608.052 356.64 604.158 355.707 600.745 353.84C597.332 351.973 594.665 349.307 592.745 345.84C590.825 342.373 589.865 338.32 589.865 333.68C589.865 329.04 590.798 324.987 592.665 321.52C594.585 318.053 597.252 315.387 600.665 313.52C604.078 311.653 607.998 310.72 612.425 310.72C616.745 310.72 620.585 311.627 623.945 313.44C627.305 315.253 629.918 317.84 631.785 321.2C633.705 324.56 634.665 328.48 634.665 332.96ZM620.665 329.36C620.665 327.013 619.865 325.147 618.265 323.76C616.665 322.373 614.665 321.68 612.265 321.68C609.972 321.68 608.025 322.347 606.425 323.68C604.878 325.013 603.918 326.907 603.545 329.36H620.665ZM656.115 333.6C656.115 329.013 656.968 324.987 658.675 321.52C660.435 318.053 662.808 315.387 665.795 313.52C668.782 311.653 672.115 310.72 675.795 310.72C678.942 310.72 681.688 311.36 684.035 312.64C686.435 313.92 688.275 315.6 689.555 317.68V311.36H703.235V356H689.555V349.68C688.222 351.76 686.355 353.44 683.955 354.72C681.608 356 678.862 356.64 675.715 356.64C672.088 356.64 668.782 355.707 665.795 353.84C662.808 351.92 660.435 349.227 658.675 345.76C656.968 342.24 656.115 338.187 656.115 333.6ZM689.555 333.68C689.555 330.267 688.595 327.573 686.675 325.6C684.808 323.627 682.515 322.64 679.795 322.64C677.075 322.64 674.755 323.627 672.835 325.6C670.968 327.52 670.035 330.187 670.035 333.6C670.035 337.013 670.968 339.733 672.835 341.76C674.755 343.733 677.075 344.72 679.795 344.72C682.515 344.72 684.808 343.733 686.675 341.76C688.595 339.787 689.555 337.093 689.555 333.68ZM726.812 296.8V356H713.132V296.8H726.812ZM750.959 333.6C750.959 329.013 751.812 324.987 753.519 321.52C755.279 318.053 757.652 315.387 760.639 313.52C763.625 311.653 766.959 310.72 770.639 310.72C773.572 310.72 776.239 311.333 778.639 312.56C781.092 313.787 783.012 315.44 784.399 317.52V296.8H798.079V356H784.399V349.6C783.119 351.733 781.279 353.44 778.879 354.72C776.532 356 773.785 356.64 770.639 356.64C766.959 356.64 763.625 355.707 760.639 353.84C757.652 351.92 755.279 349.227 753.519 345.76C751.812 342.24 750.959 338.187 750.959 333.6ZM784.399 333.68C784.399 330.267 783.439 327.573 781.519 325.6C779.652 323.627 777.359 322.64 774.639 322.64C771.919 322.64 769.599 323.627 767.679 325.6C765.812 327.52 764.879 330.187 764.879 333.6C764.879 337.013 765.812 339.733 767.679 341.76C769.599 343.733 771.919 344.72 774.639 344.72C777.359 344.72 779.652 343.733 781.519 341.76C783.439 339.787 784.399 337.093 784.399 333.68ZM822.696 311.36V356H809.016V311.36H822.696ZM825.176 300.24L805.896 308.32V298.88L825.176 289.6V300.24ZM830.959 333.6C830.959 329.013 831.812 324.987 833.519 321.52C835.279 318.053 837.652 315.387 840.639 313.52C843.625 311.653 846.959 310.72 850.639 310.72C853.785 310.72 856.532 311.36 858.879 312.64C861.279 313.92 863.119 315.6 864.399 317.68V311.36H878.079V356H864.399V349.68C863.065 351.76 861.199 353.44 858.799 354.72C856.452 356 853.705 356.64 850.559 356.64C846.932 356.64 843.625 355.707 840.639 353.84C837.652 351.92 835.279 349.227 833.519 345.76C831.812 342.24 830.959 338.187 830.959 333.6ZM864.399 333.68C864.399 330.267 863.439 327.573 861.519 325.6C859.652 323.627 857.359 322.64 854.639 322.64C851.919 322.64 849.599 323.627 847.679 325.6C845.812 327.52 844.879 330.187 844.879 333.6C844.879 337.013 845.812 339.733 847.679 341.76C849.599 343.733 851.919 344.72 854.639 344.72C857.359 344.72 859.652 343.733 861.519 341.76C863.439 339.787 864.399 337.093 864.399 333.68ZM902.209 333.68C902.209 329.04 903.142 324.987 905.009 321.52C906.929 318.053 909.569 315.387 912.929 313.52C916.342 311.653 920.235 310.72 924.609 310.72C930.209 310.72 934.875 312.187 938.609 315.12C942.395 318.053 944.875 322.187 946.049 327.52H931.489C930.262 324.107 927.889 322.4 924.369 322.4C921.862 322.4 919.862 323.387 918.369 325.36C916.875 327.28 916.129 330.053 916.129 333.68C916.129 337.307 916.875 340.107 918.369 342.08C919.862 344 921.862 344.96 924.369 344.96C927.889 344.96 930.262 343.253 931.489 339.84H946.049C944.875 345.067 942.395 349.173 938.609 352.16C934.822 355.147 930.155 356.64 924.609 356.64C920.235 356.64 916.342 355.707 912.929 353.84C909.569 351.973 906.929 349.307 905.009 345.84C903.142 342.373 902.209 338.32 902.209 333.68ZM973.686 356.64C969.313 356.64 965.366 355.707 961.846 353.84C958.38 351.973 955.633 349.307 953.606 345.84C951.633 342.373 950.646 338.32 950.646 333.68C950.646 329.093 951.66 325.067 953.686 321.6C955.713 318.08 958.486 315.387 962.006 313.52C965.526 311.653 969.473 310.72 973.846 310.72C978.22 310.72 982.166 311.653 985.686 313.52C989.206 315.387 991.98 318.08 994.006 321.6C996.033 325.067 997.046 329.093 997.046 333.68C997.046 338.267 996.006 342.32 993.926 345.84C991.9 349.307 989.1 351.973 985.526 353.84C982.006 355.707 978.06 356.64 973.686 356.64ZM973.686 344.8C976.3 344.8 978.513 343.84 980.326 341.92C982.193 340 983.126 337.253 983.126 333.68C983.126 330.107 982.22 327.36 980.406 325.44C978.646 323.52 976.46 322.56 973.846 322.56C971.18 322.56 968.966 323.52 967.206 325.44C965.446 327.307 964.566 330.053 964.566 333.68C964.566 337.253 965.42 340 967.126 341.92C968.886 343.84 971.073 344.8 973.686 344.8ZM1031.5 310.88C1036.73 310.88 1040.89 312.587 1043.98 316C1047.13 319.36 1048.7 324 1048.7 329.92V356H1035.1V331.76C1035.1 328.773 1034.33 326.453 1032.78 324.8C1031.24 323.147 1029.16 322.32 1026.54 322.32C1023.93 322.32 1021.85 323.147 1020.3 324.8C1018.76 326.453 1017.98 328.773 1017.98 331.76V356H1004.3V311.36H1017.98V317.28C1019.37 315.307 1021.24 313.76 1023.58 312.64C1025.93 311.467 1028.57 310.88 1031.5 310.88ZM1100.04 344.4V356H1093.08C1088.12 356 1084.26 354.8 1081.48 352.4C1078.71 349.947 1077.32 345.973 1077.32 340.48V322.72H1071.88V311.36H1077.32V300.48H1091V311.36H1099.96V322.72H1091V340.64C1091 341.973 1091.32 342.933 1091.96 343.52C1092.6 344.107 1093.67 344.4 1095.16 344.4H1100.04ZM1151.74 311.36V356H1138.06V349.92C1136.68 351.893 1134.78 353.493 1132.38 354.72C1130.04 355.893 1127.42 356.48 1124.54 356.48C1121.13 356.48 1118.12 355.733 1115.5 354.24C1112.89 352.693 1110.86 350.48 1109.42 347.6C1107.98 344.72 1107.26 341.333 1107.26 337.44V311.36H1120.86V335.6C1120.86 338.587 1121.64 340.907 1123.18 342.56C1124.73 344.213 1126.81 345.04 1129.42 345.04C1132.09 345.04 1134.2 344.213 1135.74 342.56C1137.29 340.907 1138.06 338.587 1138.06 335.6V311.36H1151.74ZM1179.73 356.64C1175.84 356.64 1172.37 355.973 1169.33 354.64C1166.29 353.307 1163.89 351.493 1162.13 349.2C1160.37 346.853 1159.38 344.24 1159.17 341.36H1172.69C1172.85 342.907 1173.57 344.16 1174.85 345.12C1176.13 346.08 1177.7 346.56 1179.57 346.56C1181.28 346.56 1182.58 346.24 1183.49 345.6C1184.45 344.907 1184.93 344.027 1184.93 342.96C1184.93 341.68 1184.26 340.747 1182.93 340.16C1181.6 339.52 1179.44 338.827 1176.45 338.08C1173.25 337.333 1170.58 336.56 1168.45 335.76C1166.32 334.907 1164.48 333.6 1162.93 331.84C1161.38 330.027 1160.61 327.6 1160.61 324.56C1160.61 322 1161.3 319.68 1162.69 317.6C1164.13 315.467 1166.21 313.787 1168.93 312.56C1171.7 311.333 1174.98 310.72 1178.77 310.72C1184.37 310.72 1188.77 312.107 1191.97 314.88C1195.22 317.653 1197.09 321.333 1197.57 325.92H1184.93C1184.72 324.373 1184.02 323.147 1182.85 322.24C1181.73 321.333 1180.24 320.88 1178.37 320.88C1176.77 320.88 1175.54 321.2 1174.69 321.84C1173.84 322.427 1173.41 323.253 1173.41 324.32C1173.41 325.6 1174.08 326.56 1175.41 327.2C1176.8 327.84 1178.93 328.48 1181.81 329.12C1185.12 329.973 1187.81 330.827 1189.89 331.68C1191.97 332.48 1193.78 333.813 1195.33 335.68C1196.93 337.493 1197.76 339.947 1197.81 343.04C1197.81 345.653 1197.06 348 1195.57 350.08C1194.13 352.107 1192.02 353.707 1189.25 354.88C1186.53 356.053 1183.36 356.64 1179.73 356.64ZM614.731 414.4V426H607.771C602.811 426 598.944 424.8 596.171 422.4C593.397 419.947 592.011 415.973 592.011 410.48V392.72H586.571V381.36H592.011V370.48H605.691V381.36H614.651V392.72H605.691V410.64C605.691 411.973 606.011 412.933 606.651 413.52C607.291 414.107 608.357 414.4 609.851 414.4H614.731ZM619.631 403.6C619.631 399.013 620.484 394.987 622.191 391.52C623.951 388.053 626.324 385.387 629.311 383.52C632.297 381.653 635.631 380.72 639.311 380.72C642.457 380.72 645.204 381.36 647.551 382.64C649.951 383.92 651.791 385.6 653.071 387.68V381.36H666.751V426H653.071V419.68C651.737 421.76 649.871 423.44 647.471 424.72C645.124 426 642.377 426.64 639.231 426.64C635.604 426.64 632.297 425.707 629.311 423.84C626.324 421.92 623.951 419.227 622.191 415.76C620.484 412.24 619.631 408.187 619.631 403.6ZM653.071 403.68C653.071 400.267 652.111 397.573 650.191 395.6C648.324 393.627 646.031 392.64 643.311 392.64C640.591 392.64 638.271 393.627 636.351 395.6C634.484 397.52 633.551 400.187 633.551 403.6C633.551 407.013 634.484 409.733 636.351 411.76C638.271 413.733 640.591 414.72 643.311 414.72C646.031 414.72 648.324 413.733 650.191 411.76C652.111 409.787 653.071 407.093 653.071 403.68ZM690.328 388.8C691.928 386.347 693.928 384.427 696.328 383.04C698.728 381.6 701.394 380.88 704.328 380.88V395.36H700.568C697.154 395.36 694.594 396.107 692.888 397.6C691.181 399.04 690.328 401.6 690.328 405.28V426H676.648V381.36H690.328V388.8ZM752.946 402.96C752.946 404.24 752.866 405.573 752.706 406.96H721.746C721.96 409.733 722.84 411.867 724.386 413.36C725.986 414.8 727.933 415.52 730.226 415.52C733.64 415.52 736.013 414.08 737.346 411.2H751.906C751.16 414.133 749.8 416.773 747.826 419.12C745.906 421.467 743.48 423.307 740.546 424.64C737.613 425.973 734.333 426.64 730.706 426.64C726.333 426.64 722.44 425.707 719.026 423.84C715.613 421.973 712.946 419.307 711.026 415.84C709.106 412.373 708.146 408.32 708.146 403.68C708.146 399.04 709.08 394.987 710.946 391.52C712.866 388.053 715.533 385.387 718.946 383.52C722.36 381.653 726.28 380.72 730.706 380.72C735.026 380.72 738.866 381.627 742.226 383.44C745.586 385.253 748.2 387.84 750.066 391.2C751.986 394.56 752.946 398.48 752.946 402.96ZM738.946 399.36C738.946 397.013 738.146 395.147 736.546 393.76C734.946 392.373 732.946 391.68 730.546 391.68C728.253 391.68 726.306 392.347 724.706 393.68C723.16 395.013 722.2 396.907 721.826 399.36H738.946ZM757.443 403.6C757.443 399.013 758.296 394.987 760.003 391.52C761.763 388.053 764.136 385.387 767.123 383.52C770.11 381.653 773.443 380.72 777.123 380.72C780.27 380.72 783.016 381.36 785.363 382.64C787.763 383.92 789.603 385.6 790.883 387.68V381.36H804.563V426H790.883V419.68C789.55 421.76 787.683 423.44 785.283 424.72C782.936 426 780.19 426.64 777.043 426.64C773.416 426.64 770.11 425.707 767.123 423.84C764.136 421.92 761.763 419.227 760.003 415.76C758.296 412.24 757.443 408.187 757.443 403.6ZM790.883 403.68C790.883 400.267 789.923 397.573 788.003 395.6C786.136 393.627 783.843 392.64 781.123 392.64C778.403 392.64 776.083 393.627 774.163 395.6C772.296 397.52 771.363 400.187 771.363 403.6C771.363 407.013 772.296 409.733 774.163 411.76C776.083 413.733 778.403 414.72 781.123 414.72C783.843 414.72 786.136 413.733 788.003 411.76C789.923 409.787 790.883 407.093 790.883 403.68ZM832.62 426.64C828.727 426.64 825.26 425.973 822.22 424.64C819.18 423.307 816.78 421.493 815.02 419.2C813.26 416.853 812.273 414.24 812.06 411.36H825.58C825.74 412.907 826.46 414.16 827.74 415.12C829.02 416.08 830.593 416.56 832.46 416.56C834.167 416.56 835.473 416.24 836.38 415.6C837.34 414.907 837.82 414.027 837.82 412.96C837.82 411.68 837.153 410.747 835.82 410.16C834.487 409.52 832.327 408.827 829.34 408.08C826.14 407.333 823.473 406.56 821.34 405.76C819.207 404.907 817.367 403.6 815.82 401.84C814.273 400.027 813.5 397.6 813.5 394.56C813.5 392 814.193 389.68 815.58 387.6C817.02 385.467 819.1 383.787 821.82 382.56C824.593 381.333 827.873 380.72 831.66 380.72C837.26 380.72 841.66 382.107 844.86 384.88C848.113 387.653 849.98 391.333 850.46 395.92H837.82C837.607 394.373 836.913 393.147 835.74 392.24C834.62 391.333 833.127 390.88 831.26 390.88C829.66 390.88 828.433 391.2 827.58 391.84C826.727 392.427 826.3 393.253 826.3 394.32C826.3 395.6 826.967 396.56 828.3 397.2C829.687 397.84 831.82 398.48 834.7 399.12C838.007 399.973 840.7 400.827 842.78 401.68C844.86 402.48 846.673 403.813 848.22 405.68C849.82 407.493 850.647 409.947 850.7 413.04C850.7 415.653 849.953 418 848.46 420.08C847.02 422.107 844.913 423.707 842.14 424.88C839.42 426.053 836.247 426.64 832.62 426.64Z" fill="#121954"/>
<path d="M430.6 474.7V492H428.325V479.1L422.575 492H420.975L415.2 479.075V492H412.925V474.7H415.375L421.775 489L428.175 474.7H430.6ZM433.608 485.1C433.608 483.7 433.892 482.475 434.458 481.425C435.025 480.358 435.8 479.533 436.783 478.95C437.783 478.367 438.892 478.075 440.108 478.075C441.308 478.075 442.35 478.333 443.233 478.85C444.117 479.367 444.775 480.017 445.208 480.8V478.3H447.508V492H445.208V489.45C444.758 490.25 444.083 490.917 443.183 491.45C442.3 491.967 441.267 492.225 440.083 492.225C438.867 492.225 437.767 491.925 436.783 491.325C435.8 490.725 435.025 489.883 434.458 488.8C433.892 487.717 433.608 486.483 433.608 485.1ZM445.208 485.125C445.208 484.092 445 483.192 444.583 482.425C444.167 481.658 443.6 481.075 442.883 480.675C442.183 480.258 441.408 480.05 440.558 480.05C439.708 480.05 438.933 480.25 438.233 480.65C437.533 481.05 436.975 481.633 436.558 482.4C436.142 483.167 435.933 484.067 435.933 485.1C435.933 486.15 436.142 487.067 436.558 487.85C436.975 488.617 437.533 489.208 438.233 489.625C438.933 490.025 439.708 490.225 440.558 490.225C441.408 490.225 442.183 490.025 442.883 489.625C443.6 489.208 444.167 488.617 444.583 487.85C445 487.067 445.208 486.158 445.208 485.125ZM453.628 480.525C454.028 479.742 454.594 479.133 455.328 478.7C456.078 478.267 456.986 478.05 458.053 478.05V480.4H457.453C454.903 480.4 453.628 481.783 453.628 484.55V492H451.353V478.3H453.628V480.525ZM459.829 485.125C459.829 483.708 460.112 482.475 460.679 481.425C461.246 480.358 462.029 479.533 463.029 478.95C464.046 478.367 465.204 478.075 466.504 478.075C468.187 478.075 469.571 478.483 470.654 479.3C471.754 480.117 472.479 481.25 472.829 482.7H470.379C470.146 481.867 469.687 481.208 469.004 480.725C468.337 480.242 467.504 480 466.504 480C465.204 480 464.154 480.45 463.354 481.35C462.554 482.233 462.154 483.492 462.154 485.125C462.154 486.775 462.554 488.05 463.354 488.95C464.154 489.85 465.204 490.3 466.504 490.3C467.504 490.3 468.337 490.067 469.004 489.6C469.671 489.133 470.129 488.467 470.379 487.6H472.829C472.462 489 471.729 490.125 470.629 490.975C469.529 491.808 468.154 492.225 466.504 492.225C465.204 492.225 464.046 491.933 463.029 491.35C462.029 490.767 461.246 489.942 460.679 488.875C460.112 487.808 459.829 486.558 459.829 485.125ZM475.014 485.1C475.014 483.7 475.298 482.475 475.864 481.425C476.431 480.358 477.206 479.533 478.189 478.95C479.189 478.367 480.298 478.075 481.514 478.075C482.714 478.075 483.756 478.333 484.639 478.85C485.523 479.367 486.181 480.017 486.614 480.8V478.3H488.914V492H486.614V489.45C486.164 490.25 485.489 490.917 484.589 491.45C483.706 491.967 482.673 492.225 481.489 492.225C480.273 492.225 479.173 491.925 478.189 491.325C477.206 490.725 476.431 489.883 475.864 488.8C475.298 487.717 475.014 486.483 475.014 485.1ZM486.614 485.125C486.614 484.092 486.406 483.192 485.989 482.425C485.573 481.658 485.006 481.075 484.289 480.675C483.589 480.258 482.814 480.05 481.964 480.05C481.114 480.05 480.339 480.25 479.639 480.65C478.939 481.05 478.381 481.633 477.964 482.4C477.548 483.167 477.339 484.067 477.339 485.1C477.339 486.15 477.548 487.067 477.964 487.85C478.381 488.617 478.939 489.208 479.639 489.625C480.339 490.025 481.114 490.225 481.964 490.225C482.814 490.225 483.589 490.025 484.289 489.625C485.006 489.208 485.573 488.617 485.989 487.85C486.406 487.067 486.614 486.158 486.614 485.125ZM495.034 473.5V492H492.759V473.5H495.034ZM498.061 485.1C498.061 483.7 498.345 482.475 498.911 481.425C499.478 480.358 500.253 479.533 501.236 478.95C502.236 478.367 503.345 478.075 504.561 478.075C505.761 478.075 506.803 478.333 507.686 478.85C508.57 479.367 509.228 480.017 509.661 480.8V478.3H511.961V492H509.661V489.45C509.211 490.25 508.536 490.917 507.636 491.45C506.753 491.967 505.72 492.225 504.536 492.225C503.32 492.225 502.22 491.925 501.236 491.325C500.253 490.725 499.478 489.883 498.911 488.8C498.345 487.717 498.061 486.483 498.061 485.1ZM509.661 485.125C509.661 484.092 509.453 483.192 509.036 482.425C508.62 481.658 508.053 481.075 507.336 480.675C506.636 480.258 505.861 480.05 505.011 480.05C504.161 480.05 503.386 480.25 502.686 480.65C501.986 481.05 501.428 481.633 501.011 482.4C500.595 483.167 500.386 484.067 500.386 485.1C500.386 486.15 500.595 487.067 501.011 487.85C501.428 488.617 501.986 489.208 502.686 489.625C503.386 490.025 504.161 490.225 505.011 490.225C505.861 490.225 506.636 490.025 507.336 489.625C508.053 489.208 508.62 488.617 509.036 487.85C509.453 487.067 509.661 486.158 509.661 485.125ZM520.656 492.225C519.606 492.225 518.664 492.05 517.831 491.7C516.998 491.333 516.339 490.833 515.856 490.2C515.373 489.55 515.106 488.808 515.056 487.975H517.406C517.473 488.658 517.789 489.217 518.356 489.65C518.939 490.083 519.698 490.3 520.631 490.3C521.498 490.3 522.181 490.108 522.681 489.725C523.181 489.342 523.431 488.858 523.431 488.275C523.431 487.675 523.164 487.233 522.631 486.95C522.098 486.65 521.273 486.358 520.156 486.075C519.139 485.808 518.306 485.542 517.656 485.275C517.023 484.992 516.473 484.583 516.006 484.05C515.556 483.5 515.331 482.783 515.331 481.9C515.331 481.2 515.539 480.558 515.956 479.975C516.373 479.392 516.964 478.933 517.731 478.6C518.498 478.25 519.373 478.075 520.356 478.075C521.873 478.075 523.098 478.458 524.031 479.225C524.964 479.992 525.464 481.042 525.531 482.375H523.256C523.206 481.658 522.914 481.083 522.381 480.65C521.864 480.217 521.164 480 520.281 480C519.464 480 518.814 480.175 518.331 480.525C517.848 480.875 517.606 481.333 517.606 481.9C517.606 482.35 517.748 482.725 518.031 483.025C518.331 483.308 518.698 483.542 519.131 483.725C519.581 483.892 520.198 484.083 520.981 484.3C521.964 484.567 522.764 484.833 523.381 485.1C523.998 485.35 524.523 485.733 524.956 486.25C525.406 486.767 525.639 487.442 525.656 488.275C525.656 489.025 525.448 489.7 525.031 490.3C524.614 490.9 524.023 491.375 523.256 491.725C522.506 492.058 521.639 492.225 520.656 492.225ZM534.682 485.125C534.682 483.708 534.966 482.475 535.532 481.425C536.099 480.358 536.882 479.533 537.882 478.95C538.899 478.367 540.057 478.075 541.357 478.075C543.041 478.075 544.424 478.483 545.507 479.3C546.607 480.117 547.332 481.25 547.682 482.7H545.232C544.999 481.867 544.541 481.208 543.857 480.725C543.191 480.242 542.357 480 541.357 480C540.057 480 539.007 480.45 538.207 481.35C537.407 482.233 537.007 483.492 537.007 485.125C537.007 486.775 537.407 488.05 538.207 488.95C539.007 489.85 540.057 490.3 541.357 490.3C542.357 490.3 543.191 490.067 543.857 489.6C544.524 489.133 544.982 488.467 545.232 487.6H547.682C547.316 489 546.582 490.125 545.482 490.975C544.382 491.808 543.007 492.225 541.357 492.225C540.057 492.225 538.899 491.933 537.882 491.35C536.882 490.767 536.099 489.942 535.532 488.875C534.966 487.808 534.682 486.558 534.682 485.125ZM556.693 492.225C555.41 492.225 554.243 491.933 553.193 491.35C552.16 490.767 551.343 489.942 550.743 488.875C550.16 487.792 549.868 486.542 549.868 485.125C549.868 483.725 550.168 482.492 550.768 481.425C551.385 480.342 552.218 479.517 553.268 478.95C554.318 478.367 555.493 478.075 556.793 478.075C558.093 478.075 559.268 478.367 560.318 478.95C561.368 479.517 562.193 480.333 562.793 481.4C563.41 482.467 563.718 483.708 563.718 485.125C563.718 486.542 563.401 487.792 562.768 488.875C562.151 489.942 561.31 490.767 560.243 491.35C559.176 491.933 557.993 492.225 556.693 492.225ZM556.693 490.225C557.51 490.225 558.276 490.033 558.993 489.65C559.71 489.267 560.285 488.692 560.718 487.925C561.168 487.158 561.393 486.225 561.393 485.125C561.393 484.025 561.176 483.092 560.743 482.325C560.31 481.558 559.743 480.992 559.043 480.625C558.343 480.242 557.585 480.05 556.768 480.05C555.935 480.05 555.168 480.242 554.468 480.625C553.785 480.992 553.235 481.558 552.818 482.325C552.401 483.092 552.193 484.025 552.193 485.125C552.193 486.242 552.393 487.183 552.793 487.95C553.21 488.717 553.76 489.292 554.443 489.675C555.126 490.042 555.876 490.225 556.693 490.225ZM583.184 478.05C584.251 478.05 585.201 478.275 586.034 478.725C586.868 479.158 587.526 479.817 588.009 480.7C588.493 481.583 588.734 482.658 588.734 483.925V492H586.484V484.25C586.484 482.883 586.143 481.842 585.459 481.125C584.793 480.392 583.884 480.025 582.734 480.025C581.551 480.025 580.609 480.408 579.909 481.175C579.209 481.925 578.859 483.017 578.859 484.45V492H576.609V484.25C576.609 482.883 576.268 481.842 575.584 481.125C574.918 480.392 574.009 480.025 572.859 480.025C571.676 480.025 570.734 480.408 570.034 481.175C569.334 481.925 568.984 483.017 568.984 484.45V492H566.709V478.3H568.984V480.275C569.434 479.558 570.034 479.008 570.784 478.625C571.551 478.242 572.393 478.05 573.309 478.05C574.459 478.05 575.476 478.308 576.359 478.825C577.243 479.342 577.901 480.1 578.334 481.1C578.718 480.133 579.351 479.383 580.234 478.85C581.118 478.317 582.101 478.05 583.184 478.05ZM598.441 492.225C597.158 492.225 595.991 491.933 594.941 491.35C593.908 490.767 593.091 489.942 592.491 488.875C591.908 487.792 591.616 486.542 591.616 485.125C591.616 483.725 591.916 482.492 592.516 481.425C593.133 480.342 593.966 479.517 595.016 478.95C596.066 478.367 597.241 478.075 598.541 478.075C599.841 478.075 601.016 478.367 602.066 478.95C603.116 479.517 603.941 480.333 604.541 481.4C605.158 482.467 605.466 483.708 605.466 485.125C605.466 486.542 605.149 487.792 604.516 488.875C603.899 489.942 603.058 490.767 601.991 491.35C600.924 491.933 599.741 492.225 598.441 492.225ZM598.441 490.225C599.258 490.225 600.024 490.033 600.741 489.65C601.458 489.267 602.033 488.692 602.466 487.925C602.916 487.158 603.141 486.225 603.141 485.125C603.141 484.025 602.924 483.092 602.491 482.325C602.058 481.558 601.491 480.992 600.791 480.625C600.091 480.242 599.333 480.05 598.516 480.05C597.683 480.05 596.916 480.242 596.216 480.625C595.533 480.992 594.983 481.558 594.566 482.325C594.149 483.092 593.941 484.025 593.941 485.125C593.941 486.242 594.141 487.183 594.541 487.95C594.958 488.717 595.508 489.292 596.191 489.675C596.874 490.042 597.624 490.225 598.441 490.225ZM617.397 480.525C617.797 479.742 618.364 479.133 619.097 478.7C619.847 478.267 620.756 478.05 621.822 478.05V480.4H621.222C618.672 480.4 617.397 481.783 617.397 484.55V492H615.122V478.3H617.397V480.525ZM636.948 484.625C636.948 485.058 636.923 485.517 636.873 486H625.923C626.007 487.35 626.465 488.408 627.298 489.175C628.148 489.925 629.173 490.3 630.373 490.3C631.357 490.3 632.173 490.075 632.823 489.625C633.49 489.158 633.957 488.542 634.223 487.775H636.673C636.307 489.092 635.573 490.167 634.473 491C633.373 491.817 632.007 492.225 630.373 492.225C629.073 492.225 627.907 491.933 626.873 491.35C625.857 490.767 625.057 489.942 624.473 488.875C623.89 487.792 623.598 486.542 623.598 485.125C623.598 483.708 623.882 482.467 624.448 481.4C625.015 480.333 625.807 479.517 626.823 478.95C627.857 478.367 629.04 478.075 630.373 478.075C631.673 478.075 632.823 478.358 633.823 478.925C634.823 479.492 635.59 480.275 636.123 481.275C636.673 482.258 636.948 483.375 636.948 484.625ZM634.598 484.15C634.598 483.283 634.407 482.542 634.023 481.925C633.64 481.292 633.115 480.817 632.448 480.5C631.798 480.167 631.073 480 630.273 480C629.123 480 628.14 480.367 627.323 481.1C626.523 481.833 626.065 482.85 625.948 484.15H634.598ZM639.101 485.1C639.101 483.7 639.385 482.475 639.951 481.425C640.518 480.358 641.293 479.533 642.276 478.95C643.276 478.367 644.385 478.075 645.601 478.075C646.801 478.075 647.843 478.333 648.726 478.85C649.61 479.367 650.268 480.017 650.701 480.8V478.3H653.001V492H650.701V489.45C650.251 490.25 649.576 490.917 648.676 491.45C647.793 491.967 646.76 492.225 645.576 492.225C644.36 492.225 643.26 491.925 642.276 491.325C641.293 490.725 640.518 489.883 639.951 488.8C639.385 487.717 639.101 486.483 639.101 485.1ZM650.701 485.125C650.701 484.092 650.493 483.192 650.076 482.425C649.66 481.658 649.093 481.075 648.376 480.675C647.676 480.258 646.901 480.05 646.051 480.05C645.201 480.05 644.426 480.25 643.726 480.65C643.026 481.05 642.468 481.633 642.051 482.4C641.635 483.167 641.426 484.067 641.426 485.1C641.426 486.15 641.635 487.067 642.051 487.85C642.468 488.617 643.026 489.208 643.726 489.625C644.426 490.025 645.201 490.225 646.051 490.225C646.901 490.225 647.676 490.025 648.376 489.625C649.093 489.208 649.66 488.617 650.076 487.85C650.493 487.067 650.701 486.158 650.701 485.125ZM659.121 473.5V492H656.846V473.5H659.121ZM664.173 476.075C663.74 476.075 663.373 475.925 663.073 475.625C662.773 475.325 662.623 474.958 662.623 474.525C662.623 474.092 662.773 473.725 663.073 473.425C663.373 473.125 663.74 472.975 664.173 472.975C664.59 472.975 664.94 473.125 665.223 473.425C665.523 473.725 665.673 474.092 665.673 474.525C665.673 474.958 665.523 475.325 665.223 475.625C664.94 475.925 664.59 476.075 664.173 476.075ZM665.273 478.3V492H662.998V478.3H665.273ZM670.851 490.125H677.576V492H668.251V490.125L674.901 480.15H668.301V478.3H677.526V480.15L670.851 490.125ZM679.678 485.1C679.678 483.7 679.961 482.475 680.528 481.425C681.094 480.358 681.869 479.533 682.853 478.95C683.853 478.367 684.961 478.075 686.178 478.075C687.378 478.075 688.419 478.333 689.303 478.85C690.186 479.367 690.844 480.017 691.278 480.8V478.3H693.578V492H691.278V489.45C690.828 490.25 690.153 490.917 689.253 491.45C688.369 491.967 687.336 492.225 686.153 492.225C684.936 492.225 683.836 491.925 682.853 491.325C681.869 490.725 681.094 489.883 680.528 488.8C679.961 487.717 679.678 486.483 679.678 485.1ZM691.278 485.125C691.278 484.092 691.069 483.192 690.653 482.425C690.236 481.658 689.669 481.075 688.953 480.675C688.253 480.258 687.478 480.05 686.628 480.05C685.778 480.05 685.003 480.25 684.303 480.65C683.603 481.05 683.044 481.633 682.628 482.4C682.211 483.167 682.003 484.067 682.003 485.1C682.003 486.15 682.211 487.067 682.628 487.85C683.044 488.617 683.603 489.208 684.303 489.625C685.003 490.025 685.778 490.225 686.628 490.225C687.478 490.225 688.253 490.025 688.953 489.625C689.669 489.208 690.236 488.617 690.653 487.85C691.069 487.067 691.278 486.158 691.278 485.125ZM696.572 485.1C696.572 483.7 696.855 482.475 697.422 481.425C697.989 480.358 698.764 479.533 699.747 478.95C700.747 478.367 701.864 478.075 703.097 478.075C704.164 478.075 705.155 478.325 706.072 478.825C706.989 479.308 707.689 479.95 708.172 480.75V473.5H710.472V492H708.172V489.425C707.722 490.242 707.055 490.917 706.172 491.45C705.289 491.967 704.255 492.225 703.072 492.225C701.855 492.225 700.747 491.925 699.747 491.325C698.764 490.725 697.989 489.883 697.422 488.8C696.855 487.717 696.572 486.483 696.572 485.1ZM708.172 485.125C708.172 484.092 707.964 483.192 707.547 482.425C707.13 481.658 706.564 481.075 705.847 480.675C705.147 480.258 704.372 480.05 703.522 480.05C702.672 480.05 701.897 480.25 701.197 480.65C700.497 481.05 699.939 481.633 699.522 482.4C699.105 483.167 698.897 484.067 698.897 485.1C698.897 486.15 699.105 487.067 699.522 487.85C699.939 488.617 700.497 489.208 701.197 489.625C701.897 490.025 702.672 490.225 703.522 490.225C704.372 490.225 705.147 490.025 705.847 489.625C706.564 489.208 707.13 488.617 707.547 487.85C707.964 487.067 708.172 486.158 708.172 485.125ZM713.467 485.1C713.467 483.7 713.75 482.475 714.317 481.425C714.883 480.358 715.658 479.533 716.642 478.95C717.642 478.367 718.75 478.075 719.967 478.075C721.167 478.075 722.208 478.333 723.092 478.85C723.975 479.367 724.633 480.017 725.067 480.8V478.3H727.367V492H725.067V489.45C724.617 490.25 723.942 490.917 723.042 491.45C722.158 491.967 721.125 492.225 719.942 492.225C718.725 492.225 717.625 491.925 716.642 491.325C715.658 490.725 714.883 489.883 714.317 488.8C713.75 487.717 713.467 486.483 713.467 485.1ZM725.067 485.125C725.067 484.092 724.858 483.192 724.442 482.425C724.025 481.658 723.458 481.075 722.742 480.675C722.042 480.258 721.267 480.05 720.417 480.05C719.567 480.05 718.792 480.25 718.092 480.65C717.392 481.05 716.833 481.633 716.417 482.4C716 483.167 715.792 484.067 715.792 485.1C715.792 486.15 716 487.067 716.417 487.85C716.833 488.617 717.392 489.208 718.092 489.625C718.792 490.025 719.567 490.225 720.417 490.225C721.267 490.225 722.042 490.025 722.742 489.625C723.458 489.208 724.025 488.617 724.442 487.85C724.858 487.067 725.067 486.158 725.067 485.125ZM736.061 492.225C735.011 492.225 734.069 492.05 733.236 491.7C732.403 491.333 731.744 490.833 731.261 490.2C730.778 489.55 730.511 488.808 730.461 487.975H732.811C732.878 488.658 733.194 489.217 733.761 489.65C734.344 490.083 735.103 490.3 736.036 490.3C736.903 490.3 737.586 490.108 738.086 489.725C738.586 489.342 738.836 488.858 738.836 488.275C738.836 487.675 738.569 487.233 738.036 486.95C737.503 486.65 736.678 486.358 735.561 486.075C734.544 485.808 733.711 485.542 733.061 485.275C732.428 484.992 731.878 484.583 731.411 484.05C730.961 483.5 730.736 482.783 730.736 481.9C730.736 481.2 730.944 480.558 731.361 479.975C731.778 479.392 732.369 478.933 733.136 478.6C733.903 478.25 734.778 478.075 735.761 478.075C737.278 478.075 738.503 478.458 739.436 479.225C740.369 479.992 740.869 481.042 740.936 482.375H738.661C738.611 481.658 738.319 481.083 737.786 480.65C737.269 480.217 736.569 480 735.686 480C734.869 480 734.219 480.175 733.736 480.525C733.253 480.875 733.011 481.333 733.011 481.9C733.011 482.35 733.153 482.725 733.436 483.025C733.736 483.308 734.103 483.542 734.536 483.725C734.986 483.892 735.603 484.083 736.386 484.3C737.369 484.567 738.169 484.833 738.786 485.1C739.403 485.35 739.928 485.733 740.361 486.25C740.811 486.767 741.044 487.442 741.061 488.275C741.061 489.025 740.853 489.7 740.436 490.3C740.019 490.9 739.428 491.375 738.661 491.725C737.911 492.058 737.044 492.225 736.061 492.225ZM756.913 492.225C755.629 492.225 754.463 491.933 753.413 491.35C752.379 490.767 751.563 489.942 750.963 488.875C750.379 487.792 750.088 486.542 750.088 485.125C750.088 483.725 750.388 482.492 750.988 481.425C751.604 480.342 752.438 479.517 753.488 478.95C754.538 478.367 755.713 478.075 757.013 478.075C758.313 478.075 759.488 478.367 760.538 478.95C761.588 479.517 762.413 480.333 763.013 481.4C763.629 482.467 763.938 483.708 763.938 485.125C763.938 486.542 763.621 487.792 762.988 488.875C762.371 489.942 761.529 490.767 760.463 491.35C759.396 491.933 758.213 492.225 756.913 492.225ZM756.913 490.225C757.729 490.225 758.496 490.033 759.213 489.65C759.929 489.267 760.504 488.692 760.938 487.925C761.388 487.158 761.613 486.225 761.613 485.125C761.613 484.025 761.396 483.092 760.963 482.325C760.529 481.558 759.963 480.992 759.263 480.625C758.563 480.242 757.804 480.05 756.988 480.05C756.154 480.05 755.388 480.242 754.688 480.625C754.004 480.992 753.454 481.558 753.038 482.325C752.621 483.092 752.413 484.025 752.413 485.125C752.413 486.242 752.613 487.183 753.013 487.95C753.429 488.717 753.979 489.292 754.663 489.675C755.346 490.042 756.096 490.225 756.913 490.225ZM786.094 484.625C786.094 485.058 786.069 485.517 786.019 486H775.069C775.152 487.35 775.611 488.408 776.444 489.175C777.294 489.925 778.319 490.3 779.519 490.3C780.502 490.3 781.319 490.075 781.969 489.625C782.636 489.158 783.102 488.542 783.369 487.775H785.819C785.452 489.092 784.719 490.167 783.619 491C782.519 491.817 781.152 492.225 779.519 492.225C778.219 492.225 777.052 491.933 776.019 491.35C775.002 490.767 774.202 489.942 773.619 488.875C773.036 487.792 772.744 486.542 772.744 485.125C772.744 483.708 773.027 482.467 773.594 481.4C774.161 480.333 774.952 479.517 775.969 478.95C777.002 478.367 778.186 478.075 779.519 478.075C780.819 478.075 781.969 478.358 782.969 478.925C783.969 479.492 784.736 480.275 785.269 481.275C785.819 482.258 786.094 483.375 786.094 484.625ZM783.744 484.15C783.744 483.283 783.552 482.542 783.169 481.925C782.786 481.292 782.261 480.817 781.594 480.5C780.944 480.167 780.219 480 779.419 480C778.269 480 777.286 480.367 776.469 481.1C775.669 481.833 775.211 482.85 775.094 484.15H783.744ZM791.372 473.5V492H789.097V473.5H791.372ZM796.424 476.075C795.991 476.075 795.624 475.925 795.324 475.625C795.024 475.325 794.874 474.958 794.874 474.525C794.874 474.092 795.024 473.725 795.324 473.425C795.624 473.125 795.991 472.975 796.424 472.975C796.841 472.975 797.191 473.125 797.474 473.425C797.774 473.725 797.924 474.092 797.924 474.525C797.924 474.958 797.774 475.325 797.474 475.625C797.191 475.925 796.841 476.075 796.424 476.075ZM797.524 478.3V492H795.249V478.3H797.524ZM817.877 478.05C818.943 478.05 819.893 478.275 820.727 478.725C821.56 479.158 822.218 479.817 822.702 480.7C823.185 481.583 823.427 482.658 823.427 483.925V492H821.177V484.25C821.177 482.883 820.835 481.842 820.152 481.125C819.485 480.392 818.577 480.025 817.427 480.025C816.243 480.025 815.302 480.408 814.602 481.175C813.902 481.925 813.552 483.017 813.552 484.45V492H811.302V484.25C811.302 482.883 810.96 481.842 810.277 481.125C809.61 480.392 808.702 480.025 807.552 480.025C806.368 480.025 805.427 480.408 804.727 481.175C804.027 481.925 803.677 483.017 803.677 484.45V492H801.402V478.3H803.677V480.275C804.127 479.558 804.727 479.008 805.477 478.625C806.243 478.242 807.085 478.05 808.002 478.05C809.152 478.05 810.168 478.308 811.052 478.825C811.935 479.342 812.593 480.1 813.027 481.1C813.41 480.133 814.043 479.383 814.927 478.85C815.81 478.317 816.793 478.05 817.877 478.05ZM828.333 476.075C827.9 476.075 827.533 475.925 827.233 475.625C826.933 475.325 826.783 474.958 826.783 474.525C826.783 474.092 826.933 473.725 827.233 473.425C827.533 473.125 827.9 472.975 828.333 472.975C828.75 472.975 829.1 473.125 829.383 473.425C829.683 473.725 829.833 474.092 829.833 474.525C829.833 474.958 829.683 475.325 829.383 475.625C829.1 475.925 828.75 476.075 828.333 476.075ZM829.433 478.3V492H827.158V478.3H829.433ZM839.986 478.05C841.652 478.05 843.002 478.558 844.036 479.575C845.069 480.575 845.586 482.025 845.586 483.925V492H843.336V484.25C843.336 482.883 842.994 481.842 842.311 481.125C841.627 480.392 840.694 480.025 839.511 480.025C838.311 480.025 837.352 480.4 836.636 481.15C835.936 481.9 835.586 482.992 835.586 484.425V492H833.311V478.3H835.586V480.25C836.036 479.55 836.644 479.008 837.411 478.625C838.194 478.242 839.052 478.05 839.986 478.05ZM848.452 485.1C848.452 483.7 848.735 482.475 849.302 481.425C849.869 480.358 850.644 479.533 851.627 478.95C852.627 478.367 853.735 478.075 854.952 478.075C856.152 478.075 857.194 478.333 858.077 478.85C858.96 479.367 859.619 480.017 860.052 480.8V478.3H862.352V492H860.052V489.45C859.602 490.25 858.927 490.917 858.027 491.45C857.144 491.967 856.11 492.225 854.927 492.225C853.71 492.225 852.61 491.925 851.627 491.325C850.644 490.725 849.869 489.883 849.302 488.8C848.735 487.717 848.452 486.483 848.452 485.1ZM860.052 485.125C860.052 484.092 859.844 483.192 859.427 482.425C859.01 481.658 858.444 481.075 857.727 480.675C857.027 480.258 856.252 480.05 855.402 480.05C854.552 480.05 853.777 480.25 853.077 480.65C852.377 481.05 851.819 481.633 851.402 482.4C850.985 483.167 850.777 484.067 850.777 485.1C850.777 486.15 850.985 487.067 851.402 487.85C851.819 488.617 852.377 489.208 853.077 489.625C853.777 490.025 854.552 490.225 855.402 490.225C856.252 490.225 857.027 490.025 857.727 489.625C858.444 489.208 859.01 488.617 859.427 487.85C859.844 487.067 860.052 486.158 860.052 485.125ZM868.471 473.5V492H866.196V473.5H868.471ZM871.499 485.1C871.499 483.7 871.782 482.475 872.349 481.425C872.915 480.358 873.69 479.533 874.674 478.95C875.674 478.367 876.782 478.075 877.999 478.075C879.199 478.075 880.24 478.333 881.124 478.85C882.007 479.367 882.665 480.017 883.099 480.8V478.3H885.399V492H883.099V489.45C882.649 490.25 881.974 490.917 881.074 491.45C880.19 491.967 879.157 492.225 877.974 492.225C876.757 492.225 875.657 491.925 874.674 491.325C873.69 490.725 872.915 489.883 872.349 488.8C871.782 487.717 871.499 486.483 871.499 485.1ZM883.099 485.125C883.099 484.092 882.89 483.192 882.474 482.425C882.057 481.658 881.49 481.075 880.774 480.675C880.074 480.258 879.299 480.05 878.449 480.05C877.599 480.05 876.824 480.25 876.124 480.65C875.424 481.05 874.865 481.633 874.449 482.4C874.032 483.167 873.824 484.067 873.824 485.1C873.824 486.15 874.032 487.067 874.449 487.85C874.865 488.617 875.424 489.208 876.124 489.625C876.824 490.025 877.599 490.225 878.449 490.225C879.299 490.225 880.074 490.025 880.774 489.625C881.49 489.208 882.057 488.617 882.474 487.85C882.89 487.067 883.099 486.158 883.099 485.125ZM894.093 492.225C893.043 492.225 892.102 492.05 891.268 491.7C890.435 491.333 889.777 490.833 889.293 490.2C888.81 489.55 888.543 488.808 888.493 487.975H890.843C890.91 488.658 891.227 489.217 891.793 489.65C892.377 490.083 893.135 490.3 894.068 490.3C894.935 490.3 895.618 490.108 896.118 489.725C896.618 489.342 896.868 488.858 896.868 488.275C896.868 487.675 896.602 487.233 896.068 486.95C895.535 486.65 894.71 486.358 893.593 486.075C892.577 485.808 891.743 485.542 891.093 485.275C890.46 484.992 889.91 484.583 889.443 484.05C888.993 483.5 888.768 482.783 888.768 481.9C888.768 481.2 888.977 480.558 889.393 479.975C889.81 479.392 890.402 478.933 891.168 478.6C891.935 478.25 892.81 478.075 893.793 478.075C895.31 478.075 896.535 478.458 897.468 479.225C898.402 479.992 898.902 481.042 898.968 482.375H896.693C896.643 481.658 896.352 481.083 895.818 480.65C895.302 480.217 894.602 480 893.718 480C892.902 480 892.252 480.175 891.768 480.525C891.285 480.875 891.043 481.333 891.043 481.9C891.043 482.35 891.185 482.725 891.468 483.025C891.768 483.308 892.135 483.542 892.568 483.725C893.018 483.892 893.635 484.083 894.418 484.3C895.402 484.567 896.202 484.833 896.818 485.1C897.435 485.35 897.96 485.733 898.393 486.25C898.843 486.767 899.077 487.442 899.093 488.275C899.093 489.025 898.885 489.7 898.468 490.3C898.052 490.9 897.46 491.375 896.693 491.725C895.943 492.058 895.077 492.225 894.093 492.225ZM908.12 485.1C908.12 483.7 908.403 482.475 908.97 481.425C909.537 480.358 910.312 479.533 911.295 478.95C912.295 478.367 913.412 478.075 914.645 478.075C915.712 478.075 916.703 478.325 917.62 478.825C918.537 479.308 919.237 479.95 919.72 480.75V473.5H922.02V492H919.72V489.425C919.27 490.242 918.603 490.917 917.72 491.45C916.837 491.967 915.803 492.225 914.62 492.225C913.403 492.225 912.295 491.925 911.295 491.325C910.312 490.725 909.537 489.883 908.97 488.8C908.403 487.717 908.12 486.483 908.12 485.1ZM919.72 485.125C919.72 484.092 919.512 483.192 919.095 482.425C918.678 481.658 918.112 481.075 917.395 480.675C916.695 480.258 915.92 480.05 915.07 480.05C914.22 480.05 913.445 480.25 912.745 480.65C912.045 481.05 911.487 481.633 911.07 482.4C910.653 483.167 910.445 484.067 910.445 485.1C910.445 486.15 910.653 487.067 911.07 487.85C911.487 488.617 912.045 489.208 912.745 489.625C913.445 490.025 914.22 490.225 915.07 490.225C915.92 490.225 916.695 490.025 917.395 489.625C918.112 489.208 918.678 488.617 919.095 487.85C919.512 487.067 919.72 486.158 919.72 485.125ZM938.364 484.625C938.364 485.058 938.339 485.517 938.289 486H927.339C927.423 487.35 927.881 488.408 928.714 489.175C929.564 489.925 930.589 490.3 931.789 490.3C932.773 490.3 933.589 490.075 934.239 489.625C934.906 489.158 935.373 488.542 935.639 487.775H938.089C937.723 489.092 936.989 490.167 935.889 491C934.789 491.817 933.423 492.225 931.789 492.225C930.489 492.225 929.323 491.933 928.289 491.35C927.273 490.767 926.473 489.942 925.889 488.875C925.306 487.792 925.014 486.542 925.014 485.125C925.014 483.708 925.298 482.467 925.864 481.4C926.431 480.333 927.223 479.517 928.239 478.95C929.273 478.367 930.456 478.075 931.789 478.075C933.089 478.075 934.239 478.358 935.239 478.925C936.239 479.492 937.006 480.275 937.539 481.275C938.089 482.258 938.364 483.375 938.364 484.625ZM936.014 484.15C936.014 483.283 935.823 482.542 935.439 481.925C935.056 481.292 934.531 480.817 933.864 480.5C933.214 480.167 932.489 480 931.689 480C930.539 480 929.556 480.367 928.739 481.1C927.939 481.833 927.481 482.85 927.364 484.15H936.014ZM950.307 473.5V492H948.032V473.5H950.307ZM953.335 485.1C953.335 483.7 953.618 482.475 954.185 481.425C954.751 480.358 955.526 479.533 956.51 478.95C957.51 478.367 958.618 478.075 959.835 478.075C961.035 478.075 962.076 478.333 962.96 478.85C963.843 479.367 964.501 480.017 964.935 480.8V478.3H967.235V492H964.935V489.45C964.485 490.25 963.81 490.917 962.91 491.45C962.026 491.967 960.993 492.225 959.81 492.225C958.593 492.225 957.493 491.925 956.51 491.325C955.526 490.725 954.751 489.883 954.185 488.8C953.618 487.717 953.335 486.483 953.335 485.1ZM964.935 485.125C964.935 484.092 964.726 483.192 964.31 482.425C963.893 481.658 963.326 481.075 962.61 480.675C961.91 480.258 961.135 480.05 960.285 480.05C959.435 480.05 958.66 480.25 957.96 480.65C957.26 481.05 956.701 481.633 956.285 482.4C955.868 483.167 955.66 484.067 955.66 485.1C955.66 486.15 955.868 487.067 956.285 487.85C956.701 488.617 957.26 489.208 957.96 489.625C958.66 490.025 959.435 490.225 960.285 490.225C961.135 490.225 961.91 490.025 962.61 489.625C963.326 489.208 963.893 488.617 964.31 487.85C964.726 487.067 964.935 486.158 964.935 485.125ZM980.019 473.5V492H977.744V473.5H980.019ZM985.072 476.075C984.638 476.075 984.272 475.925 983.972 475.625C983.672 475.325 983.522 474.958 983.522 474.525C983.522 474.092 983.672 473.725 983.972 473.425C984.272 473.125 984.638 472.975 985.072 472.975C985.488 472.975 985.838 473.125 986.122 473.425C986.422 473.725 986.572 474.092 986.572 474.525C986.572 474.958 986.422 475.325 986.122 475.625C985.838 475.925 985.488 476.075 985.072 476.075ZM986.172 478.3V492H983.897V478.3H986.172ZM994.899 492.225C993.849 492.225 992.907 492.05 992.074 491.7C991.241 491.333 990.582 490.833 990.099 490.2C989.616 489.55 989.349 488.808 989.299 487.975H991.649C991.716 488.658 992.032 489.217 992.599 489.65C993.182 490.083 993.941 490.3 994.874 490.3C995.741 490.3 996.424 490.108 996.924 489.725C997.424 489.342 997.674 488.858 997.674 488.275C997.674 487.675 997.407 487.233 996.874 486.95C996.341 486.65 995.516 486.358 994.399 486.075C993.382 485.808 992.549 485.542 991.899 485.275C991.266 484.992 990.716 484.583 990.249 484.05C989.799 483.5 989.574 482.783 989.574 481.9C989.574 481.2 989.782 480.558 990.199 479.975C990.616 479.392 991.207 478.933 991.974 478.6C992.741 478.25 993.616 478.075 994.599 478.075C996.116 478.075 997.341 478.458 998.274 479.225C999.207 479.992 999.707 481.042 999.774 482.375H997.499C997.449 481.658 997.157 481.083 996.624 480.65C996.107 480.217 995.407 480 994.524 480C993.707 480 993.057 480.175 992.574 480.525C992.091 480.875 991.849 481.333 991.849 481.9C991.849 482.35 991.991 482.725 992.274 483.025C992.574 483.308 992.941 483.542 993.374 483.725C993.824 483.892 994.441 484.083 995.224 484.3C996.207 484.567 997.007 484.833 997.624 485.1C998.241 485.35 998.766 485.733 999.199 486.25C999.649 486.767 999.882 487.442 999.899 488.275C999.899 489.025 999.691 489.7 999.274 490.3C998.857 490.9 998.266 491.375 997.499 491.725C996.749 492.058 995.882 492.225 994.899 492.225ZM1005.89 480.175V488.25C1005.89 488.917 1006.03 489.392 1006.31 489.675C1006.59 489.942 1007.09 490.075 1007.79 490.075H1009.46V492H1007.41C1006.14 492 1005.19 491.708 1004.56 491.125C1003.93 490.542 1003.61 489.583 1003.61 488.25V480.175H1001.84V478.3H1003.61V474.85H1005.89V478.3H1009.46V480.175H1005.89ZM1011.37 485.1C1011.37 483.7 1011.65 482.475 1012.22 481.425C1012.78 480.358 1013.56 479.533 1014.54 478.95C1015.54 478.367 1016.65 478.075 1017.87 478.075C1019.07 478.075 1020.11 478.333 1020.99 478.85C1021.88 479.367 1022.53 480.017 1022.97 480.8V478.3H1025.27V492H1022.97V489.45C1022.52 490.25 1021.84 490.917 1020.94 491.45C1020.06 491.967 1019.03 492.225 1017.84 492.225C1016.63 492.225 1015.53 491.925 1014.54 491.325C1013.56 490.725 1012.78 489.883 1012.22 488.8C1011.65 487.717 1011.37 486.483 1011.37 485.1ZM1022.97 485.125C1022.97 484.092 1022.76 483.192 1022.34 482.425C1021.93 481.658 1021.36 481.075 1020.64 480.675C1019.94 480.258 1019.17 480.05 1018.32 480.05C1017.47 480.05 1016.69 480.25 1015.99 480.65C1015.29 481.05 1014.73 481.633 1014.32 482.4C1013.9 483.167 1013.69 484.067 1013.69 485.1C1013.69 486.15 1013.9 487.067 1014.32 487.85C1014.73 488.617 1015.29 489.208 1015.99 489.625C1016.69 490.025 1017.47 490.225 1018.32 490.225C1019.17 490.225 1019.94 490.025 1020.64 489.625C1021.36 489.208 1021.93 488.617 1022.34 487.85C1022.76 487.067 1022.97 486.158 1022.97 485.125Z" fill="#585858"/>
<rect x="571" y="586" width="298" height="60" rx="30" fill="url(#paint0_linear)"/>
<path d="M614.273 615.96C614.273 614.573 614.573 613.34 615.173 612.26C615.773 611.167 616.607 610.32 617.673 609.72C618.753 609.107 619.973 608.8 621.333 608.8C623 608.8 624.427 609.24 625.613 610.12C626.8 611 627.593 612.2 627.993 613.72H624.233C623.953 613.133 623.553 612.687 623.033 612.38C622.527 612.073 621.947 611.92 621.293 611.92C620.24 611.92 619.387 612.287 618.733 613.02C618.08 613.753 617.753 614.733 617.753 615.96C617.753 617.187 618.08 618.167 618.733 618.9C619.387 619.633 620.24 620 621.293 620C621.947 620 622.527 619.847 623.033 619.54C623.553 619.233 623.953 618.787 624.233 618.2H627.993C627.593 619.72 626.8 620.92 625.613 621.8C624.427 622.667 623 623.1 621.333 623.1C619.973 623.1 618.753 622.8 617.673 622.2C616.607 621.587 615.773 620.74 615.173 619.66C614.573 618.58 614.273 617.347 614.273 615.96ZM635.168 623.16C634.074 623.16 633.088 622.927 632.208 622.46C631.341 621.993 630.654 621.327 630.148 620.46C629.654 619.593 629.408 618.58 629.408 617.42C629.408 616.273 629.661 615.267 630.168 614.4C630.674 613.52 631.368 612.847 632.248 612.38C633.128 611.913 634.114 611.68 635.208 611.68C636.301 611.68 637.288 611.913 638.168 612.38C639.048 612.847 639.741 613.52 640.248 614.4C640.754 615.267 641.008 616.273 641.008 617.42C641.008 618.567 640.748 619.58 640.228 620.46C639.721 621.327 639.021 621.993 638.128 622.46C637.248 622.927 636.261 623.16 635.168 623.16ZM635.168 620.2C635.821 620.2 636.374 619.96 636.828 619.48C637.294 619 637.528 618.313 637.528 617.42C637.528 616.527 637.301 615.84 636.848 615.36C636.408 614.88 635.861 614.64 635.208 614.64C634.541 614.64 633.988 614.88 633.548 615.36C633.108 615.827 632.888 616.513 632.888 617.42C632.888 618.313 633.101 619 633.528 619.48C633.968 619.96 634.514 620.2 635.168 620.2ZM657.062 611.72C658.449 611.72 659.549 612.14 660.362 612.98C661.189 613.82 661.602 614.987 661.602 616.48V623H658.202V616.94C658.202 616.22 658.009 615.667 657.622 615.28C657.249 614.88 656.729 614.68 656.062 614.68C655.395 614.68 654.869 614.88 654.482 615.28C654.109 615.667 653.922 616.22 653.922 616.94V623H650.522V616.94C650.522 616.22 650.329 615.667 649.942 615.28C649.569 614.88 649.049 614.68 648.382 614.68C647.715 614.68 647.189 614.88 646.802 615.28C646.429 615.667 646.242 616.22 646.242 616.94V623H642.822V611.84H646.242V613.24C646.589 612.773 647.042 612.407 647.602 612.14C648.162 611.86 648.795 611.72 649.502 611.72C650.342 611.72 651.089 611.9 651.742 612.26C652.409 612.62 652.929 613.133 653.302 613.8C653.689 613.187 654.215 612.687 654.882 612.3C655.549 611.913 656.275 611.72 657.062 611.72ZM674.514 617.24C674.514 617.56 674.494 617.893 674.454 618.24H666.714C666.767 618.933 666.987 619.467 667.374 619.84C667.774 620.2 668.261 620.38 668.834 620.38C669.687 620.38 670.281 620.02 670.614 619.3H674.254C674.067 620.033 673.727 620.693 673.234 621.28C672.754 621.867 672.147 622.327 671.414 622.66C670.681 622.993 669.861 623.16 668.954 623.16C667.861 623.16 666.887 622.927 666.034 622.46C665.181 621.993 664.514 621.327 664.034 620.46C663.554 619.593 663.314 618.58 663.314 617.42C663.314 616.26 663.547 615.247 664.014 614.38C664.494 613.513 665.161 612.847 666.014 612.38C666.867 611.913 667.847 611.68 668.954 611.68C670.034 611.68 670.994 611.907 671.834 612.36C672.674 612.813 673.327 613.46 673.794 614.3C674.274 615.14 674.514 616.12 674.514 617.24ZM671.014 616.34C671.014 615.753 670.814 615.287 670.414 614.94C670.014 614.593 669.514 614.42 668.914 614.42C668.341 614.42 667.854 614.587 667.454 614.92C667.067 615.253 666.827 615.727 666.734 616.34H671.014ZM683.118 611.72C684.425 611.72 685.465 612.147 686.238 613C687.025 613.84 687.418 615 687.418 616.48V623H684.018V616.94C684.018 616.193 683.825 615.613 683.438 615.2C683.051 614.787 682.531 614.58 681.878 614.58C681.225 614.58 680.705 614.787 680.318 615.2C679.931 615.613 679.738 616.193 679.738 616.94V623H676.318V611.84H679.738V613.32C680.085 612.827 680.551 612.44 681.138 612.16C681.725 611.867 682.385 611.72 683.118 611.72ZM692.995 620.18H697.835V623H689.175V620.28L693.815 614.66H689.215V611.84H697.735V614.56L692.995 620.18ZM699.037 617.4C699.037 616.253 699.25 615.247 699.677 614.38C700.117 613.513 700.71 612.847 701.457 612.38C702.203 611.913 703.037 611.68 703.957 611.68C704.743 611.68 705.43 611.84 706.017 612.16C706.617 612.48 707.077 612.9 707.397 613.42V611.84H710.817V623H707.397V621.42C707.063 621.94 706.597 622.36 705.997 622.68C705.41 623 704.723 623.16 703.937 623.16C703.03 623.16 702.203 622.927 701.457 622.46C700.71 621.98 700.117 621.307 699.677 620.44C699.25 619.56 699.037 618.547 699.037 617.4ZM707.397 617.42C707.397 616.567 707.157 615.893 706.677 615.4C706.21 614.907 705.637 614.66 704.957 614.66C704.277 614.66 703.697 614.907 703.217 615.4C702.75 615.88 702.517 616.547 702.517 617.4C702.517 618.253 702.75 618.933 703.217 619.44C703.697 619.933 704.277 620.18 704.957 620.18C705.637 620.18 706.21 619.933 706.677 619.44C707.157 618.947 707.397 618.273 707.397 617.42ZM716.711 613.7C717.111 613.087 717.611 612.607 718.211 612.26C718.811 611.9 719.477 611.72 720.211 611.72V615.34H719.271C718.417 615.34 717.777 615.527 717.351 615.9C716.924 616.26 716.711 616.9 716.711 617.82V623H713.291V611.84H716.711V613.7ZM725.404 617.4C725.404 616.253 725.617 615.247 726.044 614.38C726.484 613.513 727.077 612.847 727.824 612.38C728.57 611.913 729.404 611.68 730.324 611.68C731.11 611.68 731.797 611.84 732.384 612.16C732.984 612.48 733.444 612.9 733.764 613.42V611.84H737.184V623H733.764V621.42C733.43 621.94 732.964 622.36 732.364 622.68C731.777 623 731.09 623.16 730.304 623.16C729.397 623.16 728.57 622.927 727.824 622.46C727.077 621.98 726.484 621.307 726.044 620.44C725.617 619.56 725.404 618.547 725.404 617.4ZM733.764 617.42C733.764 616.567 733.524 615.893 733.044 615.4C732.577 614.907 732.004 614.66 731.324 614.66C730.644 614.66 730.064 614.907 729.584 615.4C729.117 615.88 728.884 616.547 728.884 617.4C728.884 618.253 729.117 618.933 729.584 619.44C730.064 619.933 730.644 620.18 731.324 620.18C732.004 620.18 732.577 619.933 733.044 619.44C733.524 618.947 733.764 618.273 733.764 617.42ZM743.216 617.4C743.216 616.253 743.43 615.247 743.856 614.38C744.296 613.513 744.89 612.847 745.636 612.38C746.383 611.913 747.216 611.68 748.136 611.68C748.923 611.68 749.61 611.84 750.196 612.16C750.796 612.48 751.256 612.9 751.576 613.42V611.84H754.996V623H751.576V621.42C751.243 621.94 750.776 622.36 750.176 622.68C749.59 623 748.903 623.16 748.116 623.16C747.21 623.16 746.383 622.927 745.636 622.46C744.89 621.98 744.296 621.307 743.856 620.44C743.43 619.56 743.216 618.547 743.216 617.4ZM751.576 617.42C751.576 616.567 751.336 615.893 750.856 615.4C750.39 614.907 749.816 614.66 749.136 614.66C748.456 614.66 747.876 614.907 747.396 615.4C746.93 615.88 746.696 616.547 746.696 617.4C746.696 618.253 746.93 618.933 747.396 619.44C747.876 619.933 748.456 620.18 749.136 620.18C749.816 620.18 750.39 619.933 750.856 619.44C751.336 618.947 751.576 618.273 751.576 617.42ZM761.71 611.68C762.497 611.68 763.184 611.84 763.77 612.16C764.37 612.48 764.83 612.9 765.15 613.42V611.84H768.57V622.98C768.57 624.007 768.364 624.933 767.95 625.76C767.55 626.6 766.93 627.267 766.09 627.76C765.264 628.253 764.23 628.5 762.99 628.5C761.337 628.5 759.997 628.107 758.97 627.32C757.944 626.547 757.357 625.493 757.21 624.16H760.59C760.697 624.587 760.95 624.92 761.35 625.16C761.75 625.413 762.244 625.54 762.83 625.54C763.537 625.54 764.097 625.333 764.51 624.92C764.937 624.52 765.15 623.873 765.15 622.98V621.4C764.817 621.92 764.357 622.347 763.77 622.68C763.184 623 762.497 623.16 761.71 623.16C760.79 623.16 759.957 622.927 759.21 622.46C758.464 621.98 757.87 621.307 757.43 620.44C757.004 619.56 756.79 618.547 756.79 617.4C756.79 616.253 757.004 615.247 757.43 614.38C757.87 613.513 758.464 612.847 759.21 612.38C759.957 611.913 760.79 611.68 761.71 611.68ZM765.15 617.42C765.15 616.567 764.91 615.893 764.43 615.4C763.964 614.907 763.39 614.66 762.71 614.66C762.03 614.66 761.45 614.907 760.97 615.4C760.504 615.88 760.27 616.547 760.27 617.4C760.27 618.253 760.504 618.933 760.97 619.44C761.45 619.933 762.03 620.18 762.71 620.18C763.39 620.18 763.964 619.933 764.43 619.44C764.91 618.947 765.15 618.273 765.15 617.42ZM774.465 613.7C774.865 613.087 775.365 612.607 775.965 612.26C776.565 611.9 777.231 611.72 777.965 611.72V615.34H777.025C776.171 615.34 775.531 615.527 775.105 615.9C774.678 616.26 774.465 616.9 774.465 617.82V623H771.045V611.84H774.465V613.7ZM790.119 617.24C790.119 617.56 790.099 617.893 790.059 618.24H782.319C782.373 618.933 782.593 619.467 782.979 619.84C783.379 620.2 783.866 620.38 784.439 620.38C785.293 620.38 785.886 620.02 786.219 619.3H789.859C789.673 620.033 789.333 620.693 788.839 621.28C788.359 621.867 787.753 622.327 787.019 622.66C786.286 622.993 785.466 623.16 784.559 623.16C783.466 623.16 782.493 622.927 781.639 622.46C780.786 621.993 780.119 621.327 779.639 620.46C779.159 619.593 778.919 618.58 778.919 617.42C778.919 616.26 779.153 615.247 779.619 614.38C780.099 613.513 780.766 612.847 781.619 612.38C782.473 611.913 783.453 611.68 784.559 611.68C785.639 611.68 786.599 611.907 787.439 612.36C788.279 612.813 788.933 613.46 789.399 614.3C789.879 615.14 790.119 616.12 790.119 617.24ZM786.619 616.34C786.619 615.753 786.419 615.287 786.019 614.94C785.619 614.593 785.119 614.42 784.519 614.42C783.946 614.42 783.459 614.587 783.059 614.92C782.673 615.253 782.433 615.727 782.339 616.34H786.619ZM796.164 611.68C796.95 611.68 797.637 611.84 798.224 612.16C798.824 612.48 799.284 612.9 799.604 613.42V611.84H803.024V622.98C803.024 624.007 802.817 624.933 802.404 625.76C802.004 626.6 801.384 627.267 800.544 627.76C799.717 628.253 798.684 628.5 797.444 628.5C795.79 628.5 794.45 628.107 793.424 627.32C792.397 626.547 791.81 625.493 791.664 624.16H795.044C795.15 624.587 795.404 624.92 795.804 625.16C796.204 625.413 796.697 625.54 797.284 625.54C797.99 625.54 798.55 625.333 798.964 624.92C799.39 624.52 799.604 623.873 799.604 622.98V621.4C799.27 621.92 798.81 622.347 798.224 622.68C797.637 623 796.95 623.16 796.164 623.16C795.244 623.16 794.41 622.927 793.664 622.46C792.917 621.98 792.324 621.307 791.884 620.44C791.457 619.56 791.244 618.547 791.244 617.4C791.244 616.253 791.457 615.247 791.884 614.38C792.324 613.513 792.917 612.847 793.664 612.38C794.41 611.913 795.244 611.68 796.164 611.68ZM799.604 617.42C799.604 616.567 799.364 615.893 798.884 615.4C798.417 614.907 797.844 614.66 797.164 614.66C796.484 614.66 795.904 614.907 795.424 615.4C794.957 615.88 794.724 616.547 794.724 617.4C794.724 618.253 794.957 618.933 795.424 619.44C795.904 619.933 796.484 620.18 797.164 620.18C797.844 620.18 798.417 619.933 798.884 619.44C799.364 618.947 799.604 618.273 799.604 617.42ZM804.818 617.4C804.818 616.253 805.031 615.247 805.458 614.38C805.898 613.513 806.491 612.847 807.238 612.38C807.984 611.913 808.818 611.68 809.738 611.68C810.524 611.68 811.211 611.84 811.798 612.16C812.398 612.48 812.858 612.9 813.178 613.42V611.84H816.598V623H813.178V621.42C812.844 621.94 812.378 622.36 811.778 622.68C811.191 623 810.504 623.16 809.718 623.16C808.811 623.16 807.984 622.927 807.238 622.46C806.491 621.98 805.898 621.307 805.458 620.44C805.031 619.56 804.818 618.547 804.818 617.4ZM813.178 617.42C813.178 616.567 812.938 615.893 812.458 615.4C811.991 614.907 811.418 614.66 810.738 614.66C810.058 614.66 809.478 614.907 808.998 615.4C808.531 615.88 808.298 616.547 808.298 617.4C808.298 618.253 808.531 618.933 808.998 619.44C809.478 619.933 810.058 620.18 810.738 620.18C811.418 620.18 811.991 619.933 812.458 619.44C812.938 618.947 813.178 618.273 813.178 617.42ZM822.492 613.7C822.892 613.087 823.392 612.607 823.992 612.26C824.592 611.9 825.259 611.72 825.992 611.72V615.34H825.052C824.199 615.34 823.559 615.527 823.132 615.9C822.705 616.26 822.492 616.9 822.492 617.82V623H819.072V611.84H822.492V613.7Z" fill="white"/>
<rect x="1147" y="46" width="213" height="47" rx="23.5" fill="url(#paint1_linear)"/>
<path d="M914.2 62.575V80H911.925V62.575H914.2ZM924.752 66.05C926.419 66.05 927.769 66.5583 928.802 67.575C929.836 68.575 930.352 70.025 930.352 71.925V80H928.102V72.25C928.102 70.8833 927.761 69.8417 927.077 69.125C926.394 68.3917 925.461 68.025 924.277 68.025C923.077 68.025 922.119 68.4 921.402 69.15C920.702 69.9 920.352 70.9917 920.352 72.425V80H918.077V66.3H920.352V68.25C920.802 67.55 921.411 67.0083 922.177 66.625C922.961 66.2417 923.819 66.05 924.752 66.05ZM935.244 64.075C934.81 64.075 934.444 63.925 934.144 63.625C933.844 63.325 933.694 62.9583 933.694 62.525C933.694 62.0917 933.844 61.725 934.144 61.425C934.444 61.125 934.81 60.975 935.244 60.975C935.66 60.975 936.01 61.125 936.294 61.425C936.594 61.725 936.744 62.0917 936.744 62.525C936.744 62.9583 936.594 63.325 936.294 63.625C936.01 63.925 935.66 64.075 935.244 64.075ZM936.344 66.3V80H934.069V66.3H936.344ZM939.371 73.125C939.371 71.7083 939.654 70.475 940.221 69.425C940.788 68.3583 941.571 67.5333 942.571 66.95C943.588 66.3667 944.746 66.075 946.046 66.075C947.729 66.075 949.113 66.4833 950.196 67.3C951.296 68.1167 952.021 69.25 952.371 70.7H949.921C949.688 69.8667 949.229 69.2083 948.546 68.725C947.879 68.2417 947.046 68 946.046 68C944.746 68 943.696 68.45 942.896 69.35C942.096 70.2333 941.696 71.4917 941.696 73.125C941.696 74.775 942.096 76.05 942.896 76.95C943.696 77.85 944.746 78.3 946.046 78.3C947.046 78.3 947.879 78.0667 948.546 77.6C949.213 77.1333 949.671 76.4667 949.921 75.6H952.371C952.004 77 951.271 78.125 950.171 78.975C949.071 79.8083 947.696 80.225 946.046 80.225C944.746 80.225 943.588 79.9333 942.571 79.35C941.571 78.7667 940.788 77.9417 940.221 76.875C939.654 75.8083 939.371 74.5583 939.371 73.125ZM956.581 64.075C956.148 64.075 955.781 63.925 955.481 63.625C955.181 63.325 955.031 62.9583 955.031 62.525C955.031 62.0917 955.181 61.725 955.481 61.425C955.781 61.125 956.148 60.975 956.581 60.975C956.998 60.975 957.348 61.125 957.631 61.425C957.931 61.725 958.081 62.0917 958.081 62.525C958.081 62.9583 957.931 63.325 957.631 63.625C957.348 63.925 956.998 64.075 956.581 64.075ZM957.681 66.3V80H955.406V66.3H957.681ZM967.534 80.225C966.25 80.225 965.084 79.9333 964.034 79.35C963 78.7667 962.184 77.9417 961.584 76.875C961 75.7917 960.709 74.5417 960.709 73.125C960.709 71.725 961.009 70.4917 961.609 69.425C962.225 68.3417 963.059 67.5167 964.109 66.95C965.159 66.3667 966.334 66.075 967.634 66.075C968.934 66.075 970.109 66.3667 971.159 66.95C972.209 67.5167 973.034 68.3333 973.634 69.4C974.25 70.4667 974.559 71.7083 974.559 73.125C974.559 74.5417 974.242 75.7917 973.609 76.875C972.992 77.9417 972.15 78.7667 971.084 79.35C970.017 79.9333 968.834 80.225 967.534 80.225ZM967.534 78.225C968.35 78.225 969.117 78.0333 969.834 77.65C970.55 77.2667 971.125 76.6917 971.559 75.925C972.009 75.1583 972.234 74.225 972.234 73.125C972.234 72.025 972.017 71.0917 971.584 70.325C971.15 69.5583 970.584 68.9917 969.884 68.625C969.184 68.2417 968.425 68.05 967.609 68.05C966.775 68.05 966.009 68.2417 965.309 68.625C964.625 68.9917 964.075 69.5583 963.659 70.325C963.242 71.0917 963.034 72.025 963.034 73.125C963.034 74.2417 963.234 75.1833 963.634 75.95C964.05 76.7167 964.6 77.2917 965.284 77.675C965.967 78.0417 966.717 78.225 967.534 78.225Z" fill="#121954"/>
<path d="M1176.56 60.575V78H1174.28V60.575H1176.56ZM1187.11 64.05C1188.78 64.05 1190.13 64.5583 1191.16 65.575C1192.2 66.575 1192.71 68.025 1192.71 69.925V78H1190.46V70.25C1190.46 68.8833 1190.12 67.8417 1189.44 67.125C1188.75 66.3917 1187.82 66.025 1186.64 66.025C1185.44 66.025 1184.48 66.4 1183.76 67.15C1183.06 67.9 1182.71 68.9917 1182.71 70.425V78H1180.44V64.3H1182.71V66.25C1183.16 65.55 1183.77 65.0083 1184.54 64.625C1185.32 64.2417 1186.18 64.05 1187.11 64.05ZM1197.6 62.075C1197.17 62.075 1196.8 61.925 1196.5 61.625C1196.2 61.325 1196.05 60.9583 1196.05 60.525C1196.05 60.0917 1196.2 59.725 1196.5 59.425C1196.8 59.125 1197.17 58.975 1197.6 58.975C1198.02 58.975 1198.37 59.125 1198.65 59.425C1198.95 59.725 1199.1 60.0917 1199.1 60.525C1199.1 60.9583 1198.95 61.325 1198.65 61.625C1198.37 61.925 1198.02 62.075 1197.6 62.075ZM1198.7 64.3V78H1196.43V64.3H1198.7ZM1201.73 71.125C1201.73 69.7083 1202.01 68.475 1202.58 67.425C1203.15 66.3583 1203.93 65.5333 1204.93 64.95C1205.95 64.3667 1207.11 64.075 1208.41 64.075C1210.09 64.075 1211.47 64.4833 1212.56 65.3C1213.66 66.1167 1214.38 67.25 1214.73 68.7H1212.28C1212.05 67.8667 1211.59 67.2083 1210.91 66.725C1210.24 66.2417 1209.41 66 1208.41 66C1207.11 66 1206.06 66.45 1205.26 67.35C1204.46 68.2333 1204.06 69.4917 1204.06 71.125C1204.06 72.775 1204.46 74.05 1205.26 74.95C1206.06 75.85 1207.11 76.3 1208.41 76.3C1209.41 76.3 1210.24 76.0667 1210.91 75.6C1211.57 75.1333 1212.03 74.4667 1212.28 73.6H1214.73C1214.36 75 1213.63 76.125 1212.53 76.975C1211.43 77.8083 1210.06 78.225 1208.41 78.225C1207.11 78.225 1205.95 77.9333 1204.93 77.35C1203.93 76.7667 1203.15 75.9417 1202.58 74.875C1202.01 73.8083 1201.73 72.5583 1201.73 71.125ZM1218.94 62.075C1218.51 62.075 1218.14 61.925 1217.84 61.625C1217.54 61.325 1217.39 60.9583 1217.39 60.525C1217.39 60.0917 1217.54 59.725 1217.84 59.425C1218.14 59.125 1218.51 58.975 1218.94 58.975C1219.36 58.975 1219.71 59.125 1219.99 59.425C1220.29 59.725 1220.44 60.0917 1220.44 60.525C1220.44 60.9583 1220.29 61.325 1219.99 61.625C1219.71 61.925 1219.36 62.075 1218.94 62.075ZM1220.04 64.3V78H1217.77V64.3H1220.04ZM1223.07 71.1C1223.07 69.7 1223.35 68.475 1223.92 67.425C1224.49 66.3583 1225.26 65.5333 1226.24 64.95C1227.24 64.3667 1228.35 64.075 1229.57 64.075C1230.77 64.075 1231.81 64.3333 1232.69 64.85C1233.58 65.3667 1234.24 66.0167 1234.67 66.8V64.3H1236.97V78H1234.67V75.45C1234.22 76.25 1233.54 76.9167 1232.64 77.45C1231.76 77.9667 1230.73 78.225 1229.54 78.225C1228.33 78.225 1227.23 77.925 1226.24 77.325C1225.26 76.725 1224.49 75.8833 1223.92 74.8C1223.35 73.7167 1223.07 72.4833 1223.07 71.1ZM1234.67 71.125C1234.67 70.0917 1234.46 69.1917 1234.04 68.425C1233.63 67.6583 1233.06 67.075 1232.34 66.675C1231.64 66.2583 1230.87 66.05 1230.02 66.05C1229.17 66.05 1228.39 66.25 1227.69 66.65C1226.99 67.05 1226.44 67.6333 1226.02 68.4C1225.6 69.1667 1225.39 70.0667 1225.39 71.1C1225.39 72.15 1225.6 73.0667 1226.02 73.85C1226.44 74.6167 1226.99 75.2083 1227.69 75.625C1228.39 76.025 1229.17 76.225 1230.02 76.225C1230.87 76.225 1231.64 76.025 1232.34 75.625C1233.06 75.2083 1233.63 74.6167 1234.04 73.85C1234.46 73.0667 1234.67 72.1583 1234.67 71.125ZM1243.09 66.525C1243.49 65.7417 1244.05 65.1333 1244.79 64.7C1245.54 64.2667 1246.45 64.05 1247.51 64.05V66.4H1246.91C1244.36 66.4 1243.09 67.7833 1243.09 70.55V78H1240.81V64.3H1243.09V66.525ZM1261.65 78.225C1260.6 78.225 1259.66 78.05 1258.83 77.7C1258 77.3333 1257.34 76.8333 1256.85 76.2C1256.37 75.55 1256.1 74.8083 1256.05 73.975H1258.4C1258.47 74.6583 1258.79 75.2167 1259.35 75.65C1259.94 76.0833 1260.7 76.3 1261.63 76.3C1262.5 76.3 1263.18 76.1083 1263.68 75.725C1264.18 75.3417 1264.43 74.8583 1264.43 74.275C1264.43 73.675 1264.16 73.2333 1263.63 72.95C1263.1 72.65 1262.27 72.3583 1261.15 72.075C1260.14 71.8083 1259.3 71.5417 1258.65 71.275C1258.02 70.9917 1257.47 70.5833 1257 70.05C1256.55 69.5 1256.33 68.7833 1256.33 67.9C1256.33 67.2 1256.54 66.5583 1256.95 65.975C1257.37 65.3917 1257.96 64.9333 1258.73 64.6C1259.5 64.25 1260.37 64.075 1261.35 64.075C1262.87 64.075 1264.1 64.4583 1265.03 65.225C1265.96 65.9917 1266.46 67.0417 1266.53 68.375H1264.25C1264.2 67.6583 1263.91 67.0833 1263.38 66.65C1262.86 66.2167 1262.16 66 1261.28 66C1260.46 66 1259.81 66.175 1259.33 66.525C1258.85 66.875 1258.6 67.3333 1258.6 67.9C1258.6 68.35 1258.75 68.725 1259.03 69.025C1259.33 69.3083 1259.7 69.5417 1260.13 69.725C1260.58 69.8917 1261.2 70.0833 1261.98 70.3C1262.96 70.5667 1263.76 70.8333 1264.38 71.1C1265 71.35 1265.52 71.7333 1265.95 72.25C1266.4 72.7667 1266.64 73.4417 1266.65 74.275C1266.65 75.025 1266.45 75.7 1266.03 76.3C1265.61 76.9 1265.02 77.375 1264.25 77.725C1263.5 78.0583 1262.64 78.225 1261.65 78.225ZM1282.37 70.625C1282.37 71.0583 1282.34 71.5167 1282.29 72H1271.34C1271.42 73.35 1271.88 74.4083 1272.72 75.175C1273.57 75.925 1274.59 76.3 1275.79 76.3C1276.77 76.3 1277.59 76.075 1278.24 75.625C1278.91 75.1583 1279.37 74.5417 1279.64 73.775H1282.09C1281.72 75.0917 1280.99 76.1667 1279.89 77C1278.79 77.8167 1277.42 78.225 1275.79 78.225C1274.49 78.225 1273.32 77.9333 1272.29 77.35C1271.27 76.7667 1270.47 75.9417 1269.89 74.875C1269.31 73.7917 1269.02 72.5417 1269.02 71.125C1269.02 69.7083 1269.3 68.4667 1269.87 67.4C1270.43 66.3333 1271.22 65.5167 1272.24 64.95C1273.27 64.3667 1274.46 64.075 1275.79 64.075C1277.09 64.075 1278.24 64.3583 1279.24 64.925C1280.24 65.4917 1281.01 66.275 1281.54 67.275C1282.09 68.2583 1282.37 69.375 1282.37 70.625ZM1280.02 70.15C1280.02 69.2833 1279.82 68.5417 1279.44 67.925C1279.06 67.2917 1278.53 66.8167 1277.87 66.5C1277.22 66.1667 1276.49 66 1275.69 66C1274.54 66 1273.56 66.3667 1272.74 67.1C1271.94 67.8333 1271.48 68.85 1271.37 70.15H1280.02ZM1290.22 78.225C1289.17 78.225 1288.23 78.05 1287.39 77.7C1286.56 77.3333 1285.9 76.8333 1285.42 76.2C1284.94 75.55 1284.67 74.8083 1284.62 73.975H1286.97C1287.04 74.6583 1287.35 75.2167 1287.92 75.65C1288.5 76.0833 1289.26 76.3 1290.19 76.3C1291.06 76.3 1291.74 76.1083 1292.24 75.725C1292.74 75.3417 1292.99 74.8583 1292.99 74.275C1292.99 73.675 1292.73 73.2333 1292.19 72.95C1291.66 72.65 1290.84 72.3583 1289.72 72.075C1288.7 71.8083 1287.87 71.5417 1287.22 71.275C1286.59 70.9917 1286.04 70.5833 1285.57 70.05C1285.12 69.5 1284.89 68.7833 1284.89 67.9C1284.89 67.2 1285.1 66.5583 1285.52 65.975C1285.94 65.3917 1286.53 64.9333 1287.29 64.6C1288.06 64.25 1288.94 64.075 1289.92 64.075C1291.44 64.075 1292.66 64.4583 1293.59 65.225C1294.53 65.9917 1295.03 67.0417 1295.09 68.375H1292.82C1292.77 67.6583 1292.48 67.0833 1291.94 66.65C1291.43 66.2167 1290.73 66 1289.84 66C1289.03 66 1288.38 66.175 1287.89 66.525C1287.41 66.875 1287.17 67.3333 1287.17 67.9C1287.17 68.35 1287.31 68.725 1287.59 69.025C1287.89 69.3083 1288.26 69.5417 1288.69 69.725C1289.14 69.8917 1289.76 70.0833 1290.54 70.3C1291.53 70.5667 1292.33 70.8333 1292.94 71.1C1293.56 71.35 1294.09 71.7333 1294.52 72.25C1294.97 72.7667 1295.2 73.4417 1295.22 74.275C1295.22 75.025 1295.01 75.7 1294.59 76.3C1294.18 76.9 1293.59 77.375 1292.82 77.725C1292.07 78.0583 1291.2 78.225 1290.22 78.225ZM1299.61 62.075C1299.17 62.075 1298.81 61.925 1298.51 61.625C1298.21 61.325 1298.06 60.9583 1298.06 60.525C1298.06 60.0917 1298.21 59.725 1298.51 59.425C1298.81 59.125 1299.17 58.975 1299.61 58.975C1300.02 58.975 1300.37 59.125 1300.66 59.425C1300.96 59.725 1301.11 60.0917 1301.11 60.525C1301.11 60.9583 1300.96 61.325 1300.66 61.625C1300.37 61.925 1300.02 62.075 1299.61 62.075ZM1300.71 64.3V78H1298.43V64.3H1300.71ZM1310.56 78.225C1309.27 78.225 1308.11 77.9333 1307.06 77.35C1306.02 76.7667 1305.21 75.9417 1304.61 74.875C1304.02 73.7917 1303.73 72.5417 1303.73 71.125C1303.73 69.725 1304.03 68.4917 1304.63 67.425C1305.25 66.3417 1306.08 65.5167 1307.13 64.95C1308.18 64.3667 1309.36 64.075 1310.66 64.075C1311.96 64.075 1313.13 64.3667 1314.18 64.95C1315.23 65.5167 1316.06 66.3333 1316.66 67.4C1317.27 68.4667 1317.58 69.7083 1317.58 71.125C1317.58 72.5417 1317.27 73.7917 1316.63 74.875C1316.02 75.9417 1315.17 76.7667 1314.11 77.35C1313.04 77.9333 1311.86 78.225 1310.56 78.225ZM1310.56 76.225C1311.37 76.225 1312.14 76.0333 1312.86 75.65C1313.57 75.2667 1314.15 74.6917 1314.58 73.925C1315.03 73.1583 1315.26 72.225 1315.26 71.125C1315.26 70.025 1315.04 69.0917 1314.61 68.325C1314.17 67.5583 1313.61 66.9917 1312.91 66.625C1312.21 66.2417 1311.45 66.05 1310.63 66.05C1309.8 66.05 1309.03 66.2417 1308.33 66.625C1307.65 66.9917 1307.1 67.5583 1306.68 68.325C1306.27 69.0917 1306.06 70.025 1306.06 71.125C1306.06 72.2417 1306.26 73.1833 1306.66 73.95C1307.07 74.7167 1307.62 75.2917 1308.31 75.675C1308.99 76.0417 1309.74 76.225 1310.56 76.225ZM1327.25 64.05C1328.92 64.05 1330.27 64.5583 1331.3 65.575C1332.33 66.575 1332.85 68.025 1332.85 69.925V78H1330.6V70.25C1330.6 68.8833 1330.26 67.8417 1329.57 67.125C1328.89 66.3917 1327.96 66.025 1326.77 66.025C1325.57 66.025 1324.62 66.4 1323.9 67.15C1323.2 67.9 1322.85 68.9917 1322.85 70.425V78H1320.57V64.3H1322.85V66.25C1323.3 65.55 1323.91 65.0083 1324.67 64.625C1325.46 64.2417 1326.32 64.05 1327.25 64.05Z" fill="white"/>
<path d="M1039.65 62.575V64.425H1034.9V80H1032.63V64.425H1027.85V62.575H1039.65ZM1041.6 73.1C1041.6 71.7 1041.88 70.475 1042.45 69.425C1043.02 68.3583 1043.79 67.5333 1044.78 66.95C1045.78 66.3667 1046.88 66.075 1048.1 66.075C1049.3 66.075 1050.34 66.3333 1051.23 66.85C1052.11 67.3667 1052.77 68.0167 1053.2 68.8V66.3H1055.5V80H1053.2V77.45C1052.75 78.25 1052.08 78.9167 1051.18 79.45C1050.29 79.9667 1049.26 80.225 1048.08 80.225C1046.86 80.225 1045.76 79.925 1044.78 79.325C1043.79 78.725 1043.02 77.8833 1042.45 76.8C1041.88 75.7167 1041.6 74.4833 1041.6 73.1ZM1053.2 73.125C1053.2 72.0917 1052.99 71.1917 1052.58 70.425C1052.16 69.6583 1051.59 69.075 1050.88 68.675C1050.18 68.2583 1049.4 68.05 1048.55 68.05C1047.7 68.05 1046.93 68.25 1046.23 68.65C1045.53 69.05 1044.97 69.6333 1044.55 70.4C1044.13 71.1667 1043.93 72.0667 1043.93 73.1C1043.93 74.15 1044.13 75.0667 1044.55 75.85C1044.97 76.6167 1045.53 77.2083 1046.23 77.625C1046.93 78.025 1047.7 78.225 1048.55 78.225C1049.4 78.225 1050.18 78.025 1050.88 77.625C1051.59 77.2083 1052.16 76.6167 1052.58 75.85C1052.99 75.0667 1053.2 74.1583 1053.2 73.125ZM1061.62 68.525C1062.02 67.7417 1062.59 67.1333 1063.32 66.7C1064.07 66.2667 1064.98 66.05 1066.04 66.05V68.4H1065.44C1062.89 68.4 1061.62 69.7833 1061.62 72.55V80H1059.34V66.3H1061.62V68.525ZM1081.17 72.625C1081.17 73.0583 1081.15 73.5167 1081.1 74H1070.15C1070.23 75.35 1070.69 76.4083 1071.52 77.175C1072.37 77.925 1073.4 78.3 1074.6 78.3C1075.58 78.3 1076.4 78.075 1077.05 77.625C1077.71 77.1583 1078.18 76.5417 1078.45 75.775H1080.9C1080.53 77.0917 1079.8 78.1667 1078.7 79C1077.6 79.8167 1076.23 80.225 1074.6 80.225C1073.3 80.225 1072.13 79.9333 1071.1 79.35C1070.08 78.7667 1069.28 77.9417 1068.7 76.875C1068.11 75.7917 1067.82 74.5417 1067.82 73.125C1067.82 71.7083 1068.1 70.4667 1068.67 69.4C1069.24 68.3333 1070.03 67.5167 1071.05 66.95C1072.08 66.3667 1073.26 66.075 1074.6 66.075C1075.9 66.075 1077.05 66.3583 1078.05 66.925C1079.05 67.4917 1079.81 68.275 1080.35 69.275C1080.9 70.2583 1081.17 71.375 1081.17 72.625ZM1078.82 72.15C1078.82 71.2833 1078.63 70.5417 1078.25 69.925C1077.86 69.2917 1077.34 68.8167 1076.67 68.5C1076.02 68.1667 1075.3 68 1074.5 68C1073.35 68 1072.36 68.3667 1071.55 69.1C1070.75 69.8333 1070.29 70.85 1070.17 72.15H1078.82ZM1083.32 73.1C1083.32 71.7 1083.61 70.475 1084.17 69.425C1084.74 68.3583 1085.52 67.5333 1086.5 66.95C1087.5 66.3667 1088.61 66.075 1089.82 66.075C1091.02 66.075 1092.07 66.3333 1092.95 66.85C1093.83 67.3667 1094.49 68.0167 1094.92 68.8V66.3H1097.22V80H1094.92V77.45C1094.47 78.25 1093.8 78.9167 1092.9 79.45C1092.02 79.9667 1090.98 80.225 1089.8 80.225C1088.58 80.225 1087.48 79.925 1086.5 79.325C1085.52 78.725 1084.74 77.8833 1084.17 76.8C1083.61 75.7167 1083.32 74.4833 1083.32 73.1ZM1094.92 73.125C1094.92 72.0917 1094.72 71.1917 1094.3 70.425C1093.88 69.6583 1093.32 69.075 1092.6 68.675C1091.9 68.2583 1091.12 68.05 1090.27 68.05C1089.42 68.05 1088.65 68.25 1087.95 68.65C1087.25 69.05 1086.69 69.6333 1086.27 70.4C1085.86 71.1667 1085.65 72.0667 1085.65 73.1C1085.65 74.15 1085.86 75.0667 1086.27 75.85C1086.69 76.6167 1087.25 77.2083 1087.95 77.625C1088.65 78.025 1089.42 78.225 1090.27 78.225C1091.12 78.225 1091.9 78.025 1092.6 77.625C1093.32 77.2083 1093.88 76.6167 1094.3 75.85C1094.72 75.0667 1094.92 74.1583 1094.92 73.125ZM1105.92 80.225C1104.87 80.225 1103.93 80.05 1103.09 79.7C1102.26 79.3333 1101.6 78.8333 1101.12 78.2C1100.64 77.55 1100.37 76.8083 1100.32 75.975H1102.67C1102.74 76.6583 1103.05 77.2167 1103.62 77.65C1104.2 78.0833 1104.96 78.3 1105.89 78.3C1106.76 78.3 1107.44 78.1083 1107.94 77.725C1108.44 77.3417 1108.69 76.8583 1108.69 76.275C1108.69 75.675 1108.43 75.2333 1107.89 74.95C1107.36 74.65 1106.54 74.3583 1105.42 74.075C1104.4 73.8083 1103.57 73.5417 1102.92 73.275C1102.29 72.9917 1101.74 72.5833 1101.27 72.05C1100.82 71.5 1100.59 70.7833 1100.59 69.9C1100.59 69.2 1100.8 68.5583 1101.22 67.975C1101.64 67.3917 1102.23 66.9333 1102.99 66.6C1103.76 66.25 1104.64 66.075 1105.62 66.075C1107.14 66.075 1108.36 66.4583 1109.29 67.225C1110.23 67.9917 1110.73 69.0417 1110.79 70.375H1108.52C1108.47 69.6583 1108.18 69.0833 1107.64 68.65C1107.13 68.2167 1106.43 68 1105.54 68C1104.73 68 1104.08 68.175 1103.59 68.525C1103.11 68.875 1102.87 69.3333 1102.87 69.9C1102.87 70.35 1103.01 70.725 1103.29 71.025C1103.59 71.3083 1103.96 71.5417 1104.39 71.725C1104.84 71.8917 1105.46 72.0833 1106.24 72.3C1107.23 72.5667 1108.03 72.8333 1108.64 73.1C1109.26 73.35 1109.79 73.7333 1110.22 74.25C1110.67 74.7667 1110.9 75.4417 1110.92 76.275C1110.92 77.025 1110.71 77.7 1110.29 78.3C1109.88 78.9 1109.29 79.375 1108.52 79.725C1107.77 80.0583 1106.9 80.225 1105.92 80.225Z" fill="#121954"/>
<rect x="1028" y="85" width="84" height="2" fill="#121954"/>
<path d="M124.7 68C124.7 66.5667 124.967 65.3083 125.5 64.225C126.05 63.1417 126.792 62.3083 127.725 61.725C128.658 61.1417 129.7 60.85 130.85 60.85C131.833 60.85 132.692 61.05 133.425 61.45C134.175 61.85 134.75 62.375 135.15 63.025V61.05H139.425V75H135.15V73.025C134.733 73.675 134.15 74.2 133.4 74.6C132.667 75 131.808 75.2 130.825 75.2C129.692 75.2 128.658 74.9083 127.725 74.325C126.792 73.725 126.05 72.8833 125.5 71.8C124.967 70.7 124.7 69.4333 124.7 68ZM135.15 68.025C135.15 66.9583 134.85 66.1167 134.25 65.5C133.667 64.8833 132.95 64.575 132.1 64.575C131.25 64.575 130.525 64.8833 129.925 65.5C129.342 66.1 129.05 66.9333 129.05 68C129.05 69.0667 129.342 69.9167 129.925 70.55C130.525 71.1667 131.25 71.475 132.1 71.475C132.95 71.475 133.667 71.1667 134.25 70.55C134.85 69.9333 135.15 69.0917 135.15 68.025ZM148.193 75.2C146.976 75.2 145.893 74.9917 144.943 74.575C143.993 74.1583 143.243 73.5917 142.693 72.875C142.143 72.1417 141.834 71.325 141.768 70.425H145.993C146.043 70.9083 146.268 71.3 146.668 71.6C147.068 71.9 147.559 72.05 148.143 72.05C148.676 72.05 149.084 71.95 149.368 71.75C149.668 71.5333 149.818 71.2583 149.818 70.925C149.818 70.525 149.609 70.2333 149.193 70.05C148.776 69.85 148.101 69.6333 147.168 69.4C146.168 69.1667 145.334 68.925 144.668 68.675C144.001 68.4083 143.426 68 142.943 67.45C142.459 66.8833 142.218 66.125 142.218 65.175C142.218 64.375 142.434 63.65 142.868 63C143.318 62.3333 143.968 61.8083 144.818 61.425C145.684 61.0417 146.709 60.85 147.893 60.85C149.643 60.85 151.018 61.2833 152.018 62.15C153.034 63.0167 153.618 64.1667 153.768 65.6H149.818C149.751 65.1167 149.534 64.7333 149.168 64.45C148.818 64.1667 148.351 64.025 147.768 64.025C147.268 64.025 146.884 64.125 146.618 64.325C146.351 64.5083 146.218 64.7667 146.218 65.1C146.218 65.5 146.426 65.8 146.843 66C147.276 66.2 147.943 66.4 148.843 66.6C149.876 66.8667 150.718 67.1333 151.368 67.4C152.018 67.65 152.584 68.0667 153.068 68.65C153.568 69.2167 153.826 69.9833 153.843 70.95C153.843 71.7667 153.609 72.5 153.143 73.15C152.693 73.7833 152.034 74.2833 151.168 74.65C150.318 75.0167 149.326 75.2 148.193 75.2ZM164.983 75L160.733 69.15V75H156.458V56.5H160.733V66.725L164.958 61.05H170.233L164.433 68.05L170.283 75H164.983Z" fill="#424458"/>
<path d="M198.825 63.375C199.325 62.6083 199.95 62.0083 200.7 61.575C201.45 61.125 202.283 60.9 203.2 60.9V65.425H202.025C200.958 65.425 200.158 65.6583 199.625 66.125C199.092 66.575 198.825 67.375 198.825 68.525V75H194.55V61.05H198.825V63.375ZM204.393 68C204.393 66.5667 204.66 65.3083 205.193 64.225C205.743 63.1417 206.485 62.3083 207.418 61.725C208.352 61.1417 209.393 60.85 210.543 60.85C211.527 60.85 212.385 61.05 213.118 61.45C213.868 61.85 214.443 62.375 214.843 63.025V61.05H219.118V75H214.843V73.025C214.427 73.675 213.843 74.2 213.093 74.6C212.36 75 211.502 75.2 210.518 75.2C209.385 75.2 208.352 74.9083 207.418 74.325C206.485 73.725 205.743 72.8833 205.193 71.8C204.66 70.7 204.393 69.4333 204.393 68ZM214.843 68.025C214.843 66.9583 214.543 66.1167 213.943 65.5C213.36 64.8833 212.643 64.575 211.793 64.575C210.943 64.575 210.218 64.8833 209.618 65.5C209.035 66.1 208.743 66.9333 208.743 68C208.743 69.0667 209.035 69.9167 209.618 70.55C210.218 71.1667 210.943 71.475 211.793 71.475C212.643 71.475 213.36 71.1667 213.943 70.55C214.543 69.9333 214.843 69.0917 214.843 68.025ZM221.361 68.025C221.361 66.575 221.653 65.3083 222.236 64.225C222.836 63.1417 223.661 62.3083 224.711 61.725C225.778 61.1417 226.994 60.85 228.361 60.85C230.111 60.85 231.569 61.3083 232.736 62.225C233.919 63.1417 234.694 64.4333 235.061 66.1H230.511C230.128 65.0333 229.386 64.5 228.286 64.5C227.503 64.5 226.878 64.8083 226.411 65.425C225.944 66.025 225.711 66.8917 225.711 68.025C225.711 69.1583 225.944 70.0333 226.411 70.65C226.878 71.25 227.503 71.55 228.286 71.55C229.386 71.55 230.128 71.0167 230.511 69.95H235.061C234.694 71.5833 233.919 72.8667 232.736 73.8C231.553 74.7333 230.094 75.2 228.361 75.2C226.994 75.2 225.778 74.9083 224.711 74.325C223.661 73.7417 222.836 72.9083 222.236 71.825C221.653 70.7417 221.361 69.475 221.361 68.025ZM245.873 75L241.623 69.15V75H237.348V56.5H241.623V66.725L245.848 61.05H251.123L245.323 68.05L251.173 75H245.873ZM265.952 67.8C265.952 68.2 265.927 68.6167 265.877 69.05H256.202C256.269 69.9167 256.544 70.5833 257.027 71.05C257.527 71.5 258.135 71.725 258.852 71.725C259.919 71.725 260.66 71.275 261.077 70.375H265.627C265.394 71.2917 264.969 72.1167 264.352 72.85C263.752 73.5833 262.994 74.1583 262.077 74.575C261.16 74.9917 260.135 75.2 259.002 75.2C257.635 75.2 256.419 74.9083 255.352 74.325C254.285 73.7417 253.452 72.9083 252.852 71.825C252.252 70.7417 251.952 69.475 251.952 68.025C251.952 66.575 252.244 65.3083 252.827 64.225C253.427 63.1417 254.26 62.3083 255.327 61.725C256.394 61.1417 257.619 60.85 259.002 60.85C260.352 60.85 261.552 61.1333 262.602 61.7C263.652 62.2667 264.469 63.075 265.052 64.125C265.652 65.175 265.952 66.4 265.952 67.8ZM261.577 66.675C261.577 65.9417 261.327 65.3583 260.827 64.925C260.327 64.4917 259.702 64.275 258.952 64.275C258.235 64.275 257.627 64.4833 257.127 64.9C256.644 65.3167 256.344 65.9083 256.227 66.675H261.577ZM272.482 63.375C272.982 62.6083 273.607 62.0083 274.357 61.575C275.107 61.125 275.941 60.9 276.857 60.9V65.425H275.682C274.616 65.425 273.816 65.6583 273.282 66.125C272.749 66.575 272.482 67.375 272.482 68.525V75H268.207V61.05H272.482V63.375Z" fill="#424458"/>
<path d="M121.31 35.86V85H109.34V35.86H121.31Z" fill="#121954"/>
<path d="M190.31 35.86V85H178.34V35.86H190.31Z" fill="#121954"/>
<rect x="99" y="35" width="102" height="12" fill="#121954"/>
<defs>
<linearGradient id="paint0_linear" x1="571" y1="616" x2="869" y2="616" gradientUnits="userSpaceOnUse">
<stop stop-color="#121954"/>
<stop offset="1" stop-color="#0010A5"/>
</linearGradient>
<linearGradient id="paint1_linear" x1="1147" y1="68.9268" x2="1360" y2="68.9268" gradientUnits="userSpaceOnUse">
<stop stop-color="#121954"/>
<stop offset="1" stop-color="#0010A5"/>
</linearGradient>
</defs>
</svg>
